%TF.GenerationSoftware,KiCad,Pcbnew,9.0.0*%
%TF.CreationDate,2025-03-04T16:47:24-08:00*%
%TF.ProjectId,ESPBrewRIMS_PCB,45535042-7265-4775-9249-4d535f504342,rev?*%
%TF.SameCoordinates,Original*%
%TF.FileFunction,Paste,Top*%
%TF.FilePolarity,Positive*%
%FSLAX46Y46*%
G04 Gerber Fmt 4.6, Leading zero omitted, Abs format (unit mm)*
G04 Created by KiCad (PCBNEW 9.0.0) date 2025-03-04 16:47:24*
%MOMM*%
%LPD*%
G01*
G04 APERTURE LIST*
G04 Aperture macros list*
%AMRoundRect*
0 Rectangle with rounded corners*
0 $1 Rounding radius*
0 $2 $3 $4 $5 $6 $7 $8 $9 X,Y pos of 4 corners*
0 Add a 4 corners polygon primitive as box body*
4,1,4,$2,$3,$4,$5,$6,$7,$8,$9,$2,$3,0*
0 Add four circle primitives for the rounded corners*
1,1,$1+$1,$2,$3*
1,1,$1+$1,$4,$5*
1,1,$1+$1,$6,$7*
1,1,$1+$1,$8,$9*
0 Add four rect primitives between the rounded corners*
20,1,$1+$1,$2,$3,$4,$5,0*
20,1,$1+$1,$4,$5,$6,$7,0*
20,1,$1+$1,$6,$7,$8,$9,0*
20,1,$1+$1,$8,$9,$2,$3,0*%
%AMOutline4P*
0 Free polygon, 4 corners , with rotation*
0 The origin of the aperture is its center*
0 number of corners: always 4*
0 $1 to $8 corner X, Y*
0 $9 Rotation angle, in degrees counterclockwise*
0 create outline with 4 corners*
4,1,4,$1,$2,$3,$4,$5,$6,$7,$8,$1,$2,$9*%
G04 Aperture macros list end*
%ADD10RoundRect,0.250000X0.350000X0.450000X-0.350000X0.450000X-0.350000X-0.450000X0.350000X-0.450000X0*%
%ADD11RoundRect,0.250000X0.450000X-0.350000X0.450000X0.350000X-0.450000X0.350000X-0.450000X-0.350000X0*%
%ADD12RoundRect,0.250000X0.475000X-0.337500X0.475000X0.337500X-0.475000X0.337500X-0.475000X-0.337500X0*%
%ADD13RoundRect,0.250000X-0.450000X0.350000X-0.450000X-0.350000X0.450000X-0.350000X0.450000X0.350000X0*%
%ADD14RoundRect,0.250000X-0.475000X0.337500X-0.475000X-0.337500X0.475000X-0.337500X0.475000X0.337500X0*%
%ADD15Outline4P,-1.800000X-1.150000X1.800000X-0.550000X1.800000X0.550000X-1.800000X1.150000X180.000000*%
%ADD16Outline4P,-1.800000X-1.150000X1.800000X-0.550000X1.800000X0.550000X-1.800000X1.150000X0.000000*%
%ADD17RoundRect,0.250000X-0.350000X-0.450000X0.350000X-0.450000X0.350000X0.450000X-0.350000X0.450000X0*%
G04 APERTURE END LIST*
D10*
%TO.C,R18*%
X122000000Y-85500000D03*
X120000000Y-85500000D03*
%TD*%
%TO.C,R10*%
X122000000Y-79000000D03*
X120000000Y-79000000D03*
%TD*%
D11*
%TO.C,R3*%
X168500000Y-95000000D03*
X168500000Y-93000000D03*
%TD*%
D12*
%TO.C,C3*%
X128000000Y-82075000D03*
X128000000Y-80000000D03*
%TD*%
D11*
%TO.C,R5*%
X154500000Y-95000000D03*
X154500000Y-93000000D03*
%TD*%
D13*
%TO.C,R17*%
X139000000Y-80500000D03*
X139000000Y-82500000D03*
%TD*%
D14*
%TO.C,C6*%
X160500000Y-84925000D03*
X160500000Y-87000000D03*
%TD*%
D13*
%TO.C,R16*%
X153000000Y-80500000D03*
X153000000Y-82500000D03*
%TD*%
D11*
%TO.C,R2*%
X165000000Y-95000000D03*
X165000000Y-93000000D03*
%TD*%
D13*
%TO.C,R13*%
X158500000Y-80500000D03*
X158500000Y-82500000D03*
%TD*%
D10*
%TO.C,R11*%
X140000000Y-86000000D03*
X138000000Y-86000000D03*
%TD*%
D11*
%TO.C,R7*%
X161500000Y-95000000D03*
X161500000Y-93000000D03*
%TD*%
D15*
%TO.C,D1*%
X119400000Y-101000000D03*
D16*
X113600000Y-101000000D03*
%TD*%
D17*
%TO.C,R9*%
X143000000Y-86000000D03*
X145000000Y-86000000D03*
%TD*%
D14*
%TO.C,C4*%
X166500000Y-80425000D03*
X166500000Y-82500000D03*
%TD*%
%TO.C,C2*%
X128000000Y-94925000D03*
X128000000Y-97000000D03*
%TD*%
%TO.C,C5*%
X162500000Y-80500000D03*
X162500000Y-82575000D03*
%TD*%
D13*
%TO.C,R14*%
X142500000Y-80500000D03*
X142500000Y-82500000D03*
%TD*%
D11*
%TO.C,R1*%
X142000000Y-97000000D03*
X142000000Y-95000000D03*
%TD*%
D13*
%TO.C,R15*%
X135500000Y-80500000D03*
X135500000Y-82500000D03*
%TD*%
D11*
%TO.C,R6*%
X158000000Y-95000000D03*
X158000000Y-93000000D03*
%TD*%
%TO.C,R4*%
X151000000Y-95000000D03*
X151000000Y-93000000D03*
%TD*%
D13*
%TO.C,R12*%
X146000000Y-80500000D03*
X146000000Y-82500000D03*
%TD*%
%TO.C,R8*%
X149500000Y-80500000D03*
X149500000Y-82500000D03*
%TD*%
M02*
