%TF.GenerationSoftware,KiCad,Pcbnew,9.0.0*%
%TF.CreationDate,2025-03-04T16:47:24-08:00*%
%TF.ProjectId,ESPBrewRIMS_PCB,45535042-7265-4775-9249-4d535f504342,rev?*%
%TF.SameCoordinates,Original*%
%TF.FileFunction,Copper,L1,Top*%
%TF.FilePolarity,Positive*%
%FSLAX46Y46*%
G04 Gerber Fmt 4.6, Leading zero omitted, Abs format (unit mm)*
G04 Created by KiCad (PCBNEW 9.0.0) date 2025-03-04 16:47:24*
%MOMM*%
%LPD*%
G01*
G04 APERTURE LIST*
G04 Aperture macros list*
%AMRoundRect*
0 Rectangle with rounded corners*
0 $1 Rounding radius*
0 $2 $3 $4 $5 $6 $7 $8 $9 X,Y pos of 4 corners*
0 Add a 4 corners polygon primitive as box body*
4,1,4,$2,$3,$4,$5,$6,$7,$8,$9,$2,$3,0*
0 Add four circle primitives for the rounded corners*
1,1,$1+$1,$2,$3*
1,1,$1+$1,$4,$5*
1,1,$1+$1,$6,$7*
1,1,$1+$1,$8,$9*
0 Add four rect primitives between the rounded corners*
20,1,$1+$1,$2,$3,$4,$5,0*
20,1,$1+$1,$4,$5,$6,$7,0*
20,1,$1+$1,$6,$7,$8,$9,0*
20,1,$1+$1,$8,$9,$2,$3,0*%
%AMOutline4P*
0 Free polygon, 4 corners , with rotation*
0 The origin of the aperture is its center*
0 number of corners: always 4*
0 $1 to $8 corner X, Y*
0 $9 Rotation angle, in degrees counterclockwise*
0 create outline with 4 corners*
4,1,4,$1,$2,$3,$4,$5,$6,$7,$8,$1,$2,$9*%
G04 Aperture macros list end*
%TA.AperFunction,ComponentPad*%
%ADD10C,1.740000*%
%TD*%
%TA.AperFunction,ComponentPad*%
%ADD11RoundRect,0.250000X0.620000X0.620000X-0.620000X0.620000X-0.620000X-0.620000X0.620000X-0.620000X0*%
%TD*%
%TA.AperFunction,ComponentPad*%
%ADD12R,1.700000X1.700000*%
%TD*%
%TA.AperFunction,ComponentPad*%
%ADD13RoundRect,0.250000X-0.620000X0.620000X-0.620000X-0.620000X0.620000X-0.620000X0.620000X0.620000X0*%
%TD*%
%TA.AperFunction,SMDPad,CuDef*%
%ADD14RoundRect,0.250000X0.350000X0.450000X-0.350000X0.450000X-0.350000X-0.450000X0.350000X-0.450000X0*%
%TD*%
%TA.AperFunction,SMDPad,CuDef*%
%ADD15RoundRect,0.250000X0.450000X-0.350000X0.450000X0.350000X-0.450000X0.350000X-0.450000X-0.350000X0*%
%TD*%
%TA.AperFunction,SMDPad,CuDef*%
%ADD16RoundRect,0.250000X0.475000X-0.337500X0.475000X0.337500X-0.475000X0.337500X-0.475000X-0.337500X0*%
%TD*%
%TA.AperFunction,ComponentPad*%
%ADD17RoundRect,0.250000X0.620000X-0.620000X0.620000X0.620000X-0.620000X0.620000X-0.620000X-0.620000X0*%
%TD*%
%TA.AperFunction,SMDPad,CuDef*%
%ADD18RoundRect,0.250000X-0.450000X0.350000X-0.450000X-0.350000X0.450000X-0.350000X0.450000X0.350000X0*%
%TD*%
%TA.AperFunction,SMDPad,CuDef*%
%ADD19RoundRect,0.250000X-0.475000X0.337500X-0.475000X-0.337500X0.475000X-0.337500X0.475000X0.337500X0*%
%TD*%
%TA.AperFunction,ComponentPad*%
%ADD20RoundRect,0.250000X-0.620000X-0.620000X0.620000X-0.620000X0.620000X0.620000X-0.620000X0.620000X0*%
%TD*%
%TA.AperFunction,ComponentPad*%
%ADD21O,1.700000X1.700000*%
%TD*%
%TA.AperFunction,SMDPad,CuDef*%
%ADD22Outline4P,-1.800000X-1.150000X1.800000X-0.550000X1.800000X0.550000X-1.800000X1.150000X180.000000*%
%TD*%
%TA.AperFunction,SMDPad,CuDef*%
%ADD23Outline4P,-1.800000X-1.150000X1.800000X-0.550000X1.800000X0.550000X-1.800000X1.150000X0.000000*%
%TD*%
%TA.AperFunction,SMDPad,CuDef*%
%ADD24RoundRect,0.250000X-0.350000X-0.450000X0.350000X-0.450000X0.350000X0.450000X-0.350000X0.450000X0*%
%TD*%
%TA.AperFunction,ComponentPad*%
%ADD25R,1.600000X1.600000*%
%TD*%
%TA.AperFunction,ComponentPad*%
%ADD26C,1.600000*%
%TD*%
%TA.AperFunction,ComponentPad*%
%ADD27O,1.300000X2.100000*%
%TD*%
%TA.AperFunction,ViaPad*%
%ADD28C,0.600000*%
%TD*%
%TA.AperFunction,Conductor*%
%ADD29C,0.500000*%
%TD*%
%TA.AperFunction,Conductor*%
%ADD30C,0.350000*%
%TD*%
%TA.AperFunction,Conductor*%
%ADD31C,1.000000*%
%TD*%
%TA.AperFunction,Conductor*%
%ADD32C,0.750000*%
%TD*%
G04 APERTURE END LIST*
D10*
%TO.P,J15,5,Pin_5*%
%TO.N,TC_SO*%
X144340000Y-67000000D03*
%TO.P,J15,4,Pin_4*%
%TO.N,TC_CS1*%
X146880000Y-67000000D03*
%TO.P,J15,3,Pin_3*%
%TO.N,TC_SCK*%
X149420000Y-67000000D03*
%TO.P,J15,2,Pin_2*%
%TO.N,Vcc*%
X151960000Y-67000000D03*
D11*
%TO.P,J15,1,Pin_1*%
%TO.N,GND*%
X154500000Y-67000000D03*
%TD*%
D12*
%TO.P,J12,1,Pin_1*%
%TO.N,Net-(J12-Pin_1)*%
X145500000Y-73000000D03*
%TD*%
D13*
%TO.P,J19,1,Pin_1*%
%TO.N,Vcc*%
X115600000Y-83460000D03*
D10*
%TO.P,J19,2,Pin_2*%
%TO.N,Net-(J19-Pin_2)*%
X115600000Y-86000000D03*
%TD*%
D14*
%TO.P,R18,1*%
%TO.N,SW_EX2*%
X122000000Y-85500000D03*
%TO.P,R18,2*%
%TO.N,Net-(J19-Pin_2)*%
X120000000Y-85500000D03*
%TD*%
%TO.P,R10,1*%
%TO.N,SW_EX1*%
X122000000Y-79000000D03*
%TO.P,R10,2*%
%TO.N,Net-(J14-Pin_2)*%
X120000000Y-79000000D03*
%TD*%
D12*
%TO.P,J13,1,Pin_1*%
%TO.N,Net-(J13-Pin_1)*%
X149000000Y-73000000D03*
%TD*%
%TO.P,J11,1,Pin_1*%
%TO.N,Net-(J11-Pin_1)*%
X153000000Y-103500000D03*
%TD*%
%TO.P,J10,1,Pin_1*%
%TO.N,Net-(J10-Pin_1)*%
X149500000Y-103500000D03*
%TD*%
%TO.P,J9,1,Pin_1*%
%TO.N,Net-(J9-Pin_1)*%
X146000000Y-103500000D03*
%TD*%
%TO.P,J8,1,Pin_1*%
%TO.N,Net-(J8-Pin_1)*%
X142500000Y-103500000D03*
%TD*%
D15*
%TO.P,R3,1*%
%TO.N,LED_DIO*%
X168500000Y-95000000D03*
%TO.P,R3,2*%
%TO.N,GND*%
X168500000Y-93000000D03*
%TD*%
D16*
%TO.P,C3,1*%
%TO.N,GND*%
X128000000Y-82075000D03*
%TO.P,C3,2*%
%TO.N,Vcc*%
X128000000Y-80000000D03*
%TD*%
D17*
%TO.P,J4,1,Pin_1*%
%TO.N,GND*%
X177500000Y-98770000D03*
D10*
%TO.P,J4,2,Pin_2*%
%TO.N,ADC2*%
X177500000Y-96230000D03*
%TD*%
D17*
%TO.P,J3,1,Pin_1*%
%TO.N,GND*%
X177500000Y-89500000D03*
D10*
%TO.P,J3,2,Pin_2*%
%TO.N,ADC1*%
X177500000Y-86960000D03*
%TD*%
D15*
%TO.P,R5,1*%
%TO.N,LED_STB*%
X154500000Y-95000000D03*
%TO.P,R5,2*%
%TO.N,GND*%
X154500000Y-93000000D03*
%TD*%
D18*
%TO.P,R17,1*%
%TO.N,EX_DIO*%
X139000000Y-80500000D03*
%TO.P,R17,2*%
%TO.N,Vcc*%
X139000000Y-82500000D03*
%TD*%
D19*
%TO.P,C6,1*%
%TO.N,ENC_SW*%
X160500000Y-84925000D03*
%TO.P,C6,2*%
%TO.N,GND*%
X160500000Y-87000000D03*
%TD*%
D18*
%TO.P,R16,1*%
%TO.N,SW_EX2*%
X153000000Y-80500000D03*
%TO.P,R16,2*%
%TO.N,GND*%
X153000000Y-82500000D03*
%TD*%
D20*
%TO.P,J7,1,Pin_1*%
%TO.N,LED_DIO*%
X160380000Y-109000000D03*
D10*
%TO.P,J7,2,Pin_2*%
%TO.N,LED_CLK*%
X162920000Y-109000000D03*
%TO.P,J7,3,Pin_3*%
%TO.N,LED_STB*%
X165460000Y-109000000D03*
%TO.P,J7,4,Pin_4*%
%TO.N,GND*%
X168000000Y-109000000D03*
%TO.P,J7,5,Pin_5*%
%TO.N,Vcc*%
X170540000Y-109000000D03*
%TD*%
D13*
%TO.P,J1,1,Pin_1*%
%TO.N,5V*%
X115600000Y-93000000D03*
D10*
%TO.P,J1,2,Pin_2*%
%TO.N,GND*%
X115600000Y-95540000D03*
%TD*%
D20*
%TO.P,J2,1,Pin_1*%
%TO.N,RESET_SW*%
X131840000Y-109000000D03*
D10*
%TO.P,J2,2,Pin_2*%
%TO.N,Net-(J2-Pin_2)*%
X134380000Y-109000000D03*
%TD*%
D15*
%TO.P,R2,1*%
%TO.N,LED_DIO*%
X165000000Y-95000000D03*
%TO.P,R2,2*%
%TO.N,Vcc*%
X165000000Y-93000000D03*
%TD*%
D20*
%TO.P,J6,1,Pin_1*%
%TO.N,GND*%
X141380000Y-109000000D03*
D10*
%TO.P,J6,2,Pin_2*%
%TO.N,ADC4*%
X143920000Y-109000000D03*
%TD*%
D18*
%TO.P,R13,1*%
%TO.N,SW_MODE*%
X158500000Y-80500000D03*
%TO.P,R13,2*%
%TO.N,GND*%
X158500000Y-82500000D03*
%TD*%
D11*
%TO.P,J16,1,Pin_1*%
%TO.N,GND*%
X137420000Y-67000000D03*
D10*
%TO.P,J16,2,Pin_2*%
%TO.N,Vcc*%
X134880000Y-67000000D03*
%TO.P,J16,3,Pin_3*%
%TO.N,TC_SCK*%
X132340000Y-67000000D03*
%TO.P,J16,4,Pin_4*%
%TO.N,TC_CS2*%
X129800000Y-67000000D03*
%TO.P,J16,5,Pin_5*%
%TO.N,TC_SO*%
X127260000Y-67000000D03*
%TD*%
D14*
%TO.P,R11,1*%
%TO.N,EX_CLK*%
X140000000Y-86000000D03*
%TO.P,R11,2*%
%TO.N,Vcc*%
X138000000Y-86000000D03*
%TD*%
D15*
%TO.P,R7,1*%
%TO.N,LED_CLK*%
X161500000Y-95000000D03*
%TO.P,R7,2*%
%TO.N,GND*%
X161500000Y-93000000D03*
%TD*%
D12*
%TO.P,J20,1,Pin_1*%
%TO.N,EX_DIO*%
X122000000Y-74660000D03*
D21*
%TO.P,J20,2,Pin_2*%
%TO.N,EX_CLK*%
X122000000Y-72120000D03*
%TO.P,J20,3,Pin_3*%
%TO.N,EX_STB*%
X122000000Y-69580000D03*
%TO.P,J20,4,Pin_4*%
%TO.N,GND*%
X122000000Y-67040000D03*
%TO.P,J20,5,Pin_5*%
%TO.N,Vcc*%
X122000000Y-64500000D03*
%TD*%
D22*
%TO.P,D1,1,K*%
%TO.N,5V*%
X119400000Y-101000000D03*
D23*
%TO.P,D1,2,A*%
%TO.N,GND*%
X113600000Y-101000000D03*
%TD*%
D20*
%TO.P,J5,1,Pin_1*%
%TO.N,GND*%
X150880000Y-109000000D03*
D10*
%TO.P,J5,2,Pin_2*%
%TO.N,ADC3*%
X153420000Y-109000000D03*
%TD*%
D24*
%TO.P,R9,1*%
%TO.N,EX_CLK*%
X143000000Y-86000000D03*
%TO.P,R9,2*%
%TO.N,GND*%
X145000000Y-86000000D03*
%TD*%
D19*
%TO.P,C4,1*%
%TO.N,ENC_A*%
X166500000Y-80425000D03*
%TO.P,C4,2*%
%TO.N,GND*%
X166500000Y-82500000D03*
%TD*%
D11*
%TO.P,J18,1,Pin_1*%
%TO.N,ENC_SW*%
X171500000Y-67000000D03*
D10*
%TO.P,J18,2,Pin_2*%
%TO.N,GND*%
X168960000Y-67000000D03*
%TO.P,J18,3,Pin_3*%
%TO.N,ENC_A*%
X166420000Y-67000000D03*
%TO.P,J18,4,Pin_4*%
%TO.N,GND*%
X163880000Y-67000000D03*
%TO.P,J18,5,Pin_5*%
%TO.N,ENC_B*%
X161340000Y-67000000D03*
%TD*%
D19*
%TO.P,C2,1*%
%TO.N,GND*%
X128000000Y-94925000D03*
%TO.P,C2,2*%
%TO.N,5V*%
X128000000Y-97000000D03*
%TD*%
%TO.P,C5,1*%
%TO.N,ENC_B*%
X162500000Y-80500000D03*
%TO.P,C5,2*%
%TO.N,GND*%
X162500000Y-82575000D03*
%TD*%
D18*
%TO.P,R14,1*%
%TO.N,EX_STB*%
X142500000Y-80500000D03*
%TO.P,R14,2*%
%TO.N,Vcc*%
X142500000Y-82500000D03*
%TD*%
D15*
%TO.P,R1,1*%
%TO.N,Net-(J2-Pin_2)*%
X142000000Y-97000000D03*
%TO.P,R1,2*%
%TO.N,GND*%
X142000000Y-95000000D03*
%TD*%
D18*
%TO.P,R15,1*%
%TO.N,EX_DIO*%
X135500000Y-80500000D03*
%TO.P,R15,2*%
%TO.N,GND*%
X135500000Y-82500000D03*
%TD*%
D17*
%TO.P,J17,1,Pin_1*%
%TO.N,Vcc*%
X177500000Y-80040000D03*
D10*
%TO.P,J17,2,Pin_2*%
%TO.N,SW_MODE*%
X177500000Y-77500000D03*
%TD*%
D15*
%TO.P,R6,1*%
%TO.N,LED_CLK*%
X158000000Y-95000000D03*
%TO.P,R6,2*%
%TO.N,Vcc*%
X158000000Y-93000000D03*
%TD*%
D25*
%TO.P,C1,1*%
%TO.N,5V*%
X124000000Y-106000000D03*
D26*
%TO.P,C1,2*%
%TO.N,GND*%
X124000000Y-109500000D03*
%TD*%
D15*
%TO.P,R4,1*%
%TO.N,LED_STB*%
X151000000Y-95000000D03*
%TO.P,R4,2*%
%TO.N,Vcc*%
X151000000Y-93000000D03*
%TD*%
D18*
%TO.P,R12,1*%
%TO.N,EX_STB*%
X146000000Y-80500000D03*
%TO.P,R12,2*%
%TO.N,GND*%
X146000000Y-82500000D03*
%TD*%
%TO.P,R8,1*%
%TO.N,SW_EX1*%
X149500000Y-80500000D03*
%TO.P,R8,2*%
%TO.N,GND*%
X149500000Y-82500000D03*
%TD*%
D13*
%TO.P,J14,1,Pin_1*%
%TO.N,Vcc*%
X115640000Y-74000000D03*
D10*
%TO.P,J14,2,Pin_2*%
%TO.N,Net-(J14-Pin_2)*%
X115640000Y-76540000D03*
%TD*%
D27*
%TO.P,U1,1,J2_GND*%
%TO.N,GND*%
X125820000Y-100030000D03*
%TO.P,U1,2,J2_5V*%
%TO.N,5V*%
X128360000Y-100030000D03*
%TO.P,U1,3,J2_Ve1*%
%TO.N,unconnected-(U1-J2_Ve1-Pad3)*%
X130900000Y-100030000D03*
%TO.P,U1,4,J2_Ve2*%
%TO.N,unconnected-(U1-J2_Ve2-Pad4)*%
X133440000Y-100030000D03*
%TO.P,U1,5,J2_GPIO44*%
%TO.N,unconnected-(U1-J2_GPIO44-Pad5)*%
X135980000Y-100030000D03*
%TO.P,U1,6,J2_GPIO43*%
%TO.N,unconnected-(U1-J2_GPIO43-Pad6)*%
X138520000Y-100030000D03*
%TO.P,U1,7,J2_RST*%
%TO.N,RESET_SW*%
X141060000Y-100030000D03*
%TO.P,U1,8,J2_GPIO0*%
%TO.N,Net-(J8-Pin_1)*%
X143600000Y-100030000D03*
%TO.P,U1,9,J2_GPIO21*%
%TO.N,Net-(J9-Pin_1)*%
X146140000Y-100030000D03*
%TO.P,U1,10,J2_GPIO20*%
%TO.N,Net-(J10-Pin_1)*%
X148680000Y-100030000D03*
%TO.P,U1,11,J2_GPIO19*%
%TO.N,Net-(J11-Pin_1)*%
X151220000Y-100030000D03*
%TO.P,U1,12,J2_GPIO7*%
%TO.N,ADC4*%
X153760000Y-100030000D03*
%TO.P,U1,13,J2_GPIO6*%
%TO.N,ADC3*%
X156300000Y-100030000D03*
%TO.P,U1,14,J2_GPIO5*%
%TO.N,LED_STB*%
X158840000Y-100030000D03*
%TO.P,U1,15,J2_GPIO4*%
%TO.N,LED_CLK*%
X161380000Y-100030000D03*
%TO.P,U1,16,J2_GPIO3*%
%TO.N,LED_DIO*%
X163920000Y-100030000D03*
%TO.P,U1,17,J2_GPIO2*%
%TO.N,ADC1*%
X166460000Y-100030000D03*
%TO.P,U1,18,J2_GPIO1*%
%TO.N,ADC2*%
X169000000Y-100030000D03*
%TO.P,U1,19,J3_GPIO46*%
%TO.N,ENC_A*%
X169000000Y-77000000D03*
%TO.P,U1,20,J3_GPIO45*%
%TO.N,ENC_B*%
X166460000Y-77000000D03*
%TO.P,U1,21,J3_GPIO42*%
%TO.N,ENC_SW*%
X163920000Y-77000000D03*
%TO.P,U1,22,J3_GPIO41*%
%TO.N,SW_MODE*%
X161380000Y-77000000D03*
%TO.P,U1,23,J3_GPIO40*%
%TO.N,TC_SO*%
X158840000Y-77000000D03*
%TO.P,U1,24,J3_GPIO39*%
%TO.N,TC_SCK*%
X156300000Y-77000000D03*
%TO.P,U1,25,J3_GPIO38*%
%TO.N,TC_CS1*%
X153760000Y-77000000D03*
%TO.P,U1,26,J3_GPIO37*%
%TO.N,TC_CS2*%
X151220000Y-77000000D03*
%TO.P,U1,27,J3_GPIO36*%
%TO.N,Net-(J13-Pin_1)*%
X148680000Y-77000000D03*
%TO.P,U1,28,J3_GPIO35*%
%TO.N,Net-(J12-Pin_1)*%
X146140000Y-77000000D03*
%TO.P,U1,29,J3_GPIO34*%
%TO.N,SW_EX2*%
X143600000Y-77000000D03*
%TO.P,U1,30,J3_GPIO33*%
%TO.N,SW_EX1*%
X141060000Y-77000000D03*
%TO.P,U1,31,J3_GPIO47*%
%TO.N,EX_STB*%
X138520000Y-77000000D03*
%TO.P,U1,32,J3_GPIO48*%
%TO.N,EX_CLK*%
X135980000Y-77000000D03*
%TO.P,U1,33,J3_GPIO26*%
%TO.N,EX_DIO*%
X133440000Y-77000000D03*
%TO.P,U1,34,J3_3v3b*%
%TO.N,unconnected-(U1-J3_3v3b-Pad34)*%
X130900000Y-77000000D03*
%TO.P,U1,35,J3_3V3a*%
%TO.N,Vcc*%
X128360000Y-77000000D03*
%TO.P,U1,36,J3_GND*%
%TO.N,GND*%
X125820000Y-77000000D03*
%TD*%
D28*
%TO.N,SW_EX2*%
X123500000Y-85500000D03*
%TO.N,GND*%
X129925000Y-82075000D03*
X133000000Y-82000000D03*
%TO.N,Vcc*%
X151000000Y-92000000D03*
X165000000Y-92000000D03*
X134000000Y-87000000D03*
X157000000Y-92000000D03*
X135000000Y-88000000D03*
%TO.N,SW_EX1*%
X124000000Y-82000000D03*
%TO.N,TC_CS1*%
X147840000Y-69500000D03*
%TO.N,TC_SO*%
X134840000Y-70500000D03*
%TO.N,EX_CLK*%
X141000000Y-84000000D03*
X141000000Y-81000000D03*
%TD*%
D29*
%TO.N,TC_CS2*%
X141000000Y-75000000D02*
X149220000Y-75000000D01*
X132300000Y-69500000D02*
X135500000Y-69500000D01*
X129800000Y-67000000D02*
X132300000Y-69500000D01*
X135500000Y-69500000D02*
X141000000Y-75000000D01*
X149220000Y-75000000D02*
X151220000Y-77000000D01*
D30*
%TO.N,EX_DIO*%
X131100000Y-74660000D02*
X122000000Y-74660000D01*
X133440000Y-77000000D02*
X131100000Y-74660000D01*
D29*
%TO.N,EX_CLK*%
X125620000Y-72120000D02*
X122000000Y-72120000D01*
X132000000Y-73000000D02*
X126500000Y-73000000D01*
X133778000Y-74778000D02*
X132000000Y-73000000D01*
X133778000Y-74798000D02*
X133778000Y-74778000D01*
X126500000Y-73000000D02*
X125620000Y-72120000D01*
X135980000Y-77000000D02*
X133778000Y-74798000D01*
%TO.N,EX_STB*%
X127500000Y-71500000D02*
X125580000Y-69580000D01*
X133020000Y-71500000D02*
X127500000Y-71500000D01*
X125580000Y-69580000D02*
X122000000Y-69580000D01*
X138520000Y-77000000D02*
X133020000Y-71500000D01*
D30*
%TO.N,ENC_A*%
X166420000Y-73420000D02*
X166420000Y-67000000D01*
X169000000Y-76000000D02*
X166420000Y-73420000D01*
X169000000Y-77000000D02*
X169000000Y-76000000D01*
D29*
%TO.N,ENC_B*%
X161340000Y-71880000D02*
X166460000Y-77000000D01*
X161340000Y-67000000D02*
X161340000Y-71880000D01*
D30*
%TO.N,TC_SCK*%
X156300000Y-74660000D02*
X156300000Y-77000000D01*
X150140000Y-68500000D02*
X156300000Y-74660000D01*
D29*
%TO.N,TC_CS1*%
X153760000Y-73760000D02*
X153760000Y-77000000D01*
X149500000Y-69500000D02*
X153760000Y-73760000D01*
X147840000Y-69500000D02*
X149500000Y-69500000D01*
D31*
%TO.N,GND*%
X125540000Y-63500000D02*
X122000000Y-67040000D01*
X136840000Y-63500000D02*
X125540000Y-63500000D01*
D29*
%TO.N,SW_EX1*%
X122000000Y-81000000D02*
X122000000Y-79000000D01*
X123000000Y-82000000D02*
X122000000Y-81000000D01*
X124000000Y-82000000D02*
X123000000Y-82000000D01*
%TO.N,SW_EX2*%
X122000000Y-85500000D02*
X123500000Y-85500000D01*
%TO.N,Net-(J19-Pin_2)*%
X116100000Y-85500000D02*
X115600000Y-86000000D01*
X120000000Y-85500000D02*
X116100000Y-85500000D01*
%TO.N,Net-(J14-Pin_2)*%
X120000000Y-79000000D02*
X116500000Y-79000000D01*
X116500000Y-79000000D02*
X115640000Y-78140000D01*
X115640000Y-78140000D02*
X115640000Y-76540000D01*
%TO.N,LED_CLK*%
X162920000Y-103920000D02*
X162920000Y-109000000D01*
X161380000Y-100030000D02*
X161380000Y-102380000D01*
X161380000Y-102380000D02*
X162920000Y-103920000D01*
D31*
%TO.N,GND*%
X141380000Y-111380000D02*
X141500000Y-111500000D01*
X141380000Y-109000000D02*
X141380000Y-111380000D01*
X141500000Y-111500000D02*
X126000000Y-111500000D01*
D30*
%TO.N,Net-(J2-Pin_2)*%
X136568232Y-103551000D02*
X134380000Y-105739232D01*
X134380000Y-105739232D02*
X134380000Y-109000000D01*
X139389983Y-103551000D02*
X136568232Y-103551000D01*
X142086000Y-100854983D02*
X139389983Y-103551000D01*
X142086000Y-97086000D02*
X142086000Y-100854983D01*
X142000000Y-97000000D02*
X142086000Y-97086000D01*
%TO.N,RESET_SW*%
X131840000Y-107500000D02*
X131840000Y-109000000D01*
D31*
%TO.N,GND*%
X115600000Y-95540000D02*
X119040000Y-95540000D01*
X119040000Y-95540000D02*
X123530000Y-100030000D01*
X123530000Y-100030000D02*
X125820000Y-100030000D01*
D32*
%TO.N,5V*%
X122000000Y-106000000D02*
X124000000Y-106000000D01*
X119400000Y-103400000D02*
X122000000Y-106000000D01*
X119400000Y-101000000D02*
X119400000Y-103400000D01*
D31*
%TO.N,GND*%
X113600000Y-103600000D02*
X113600000Y-101000000D01*
X124000000Y-109500000D02*
X119500000Y-109500000D01*
X119500000Y-109500000D02*
X113600000Y-103600000D01*
X126000000Y-111500000D02*
X124000000Y-109500000D01*
X151000000Y-111500000D02*
X141500000Y-111500000D01*
D30*
%TO.N,Net-(J11-Pin_1)*%
X151220000Y-101720000D02*
X153000000Y-103500000D01*
X151220000Y-100030000D02*
X151220000Y-101720000D01*
%TO.N,Net-(J8-Pin_1)*%
X143600000Y-102400000D02*
X142500000Y-103500000D01*
X143600000Y-100030000D02*
X143600000Y-102400000D01*
%TO.N,Net-(J9-Pin_1)*%
X146140000Y-100030000D02*
X146140000Y-103360000D01*
X146140000Y-103360000D02*
X146000000Y-103500000D01*
%TO.N,Net-(J10-Pin_1)*%
X148680000Y-102680000D02*
X149500000Y-103500000D01*
X148680000Y-100030000D02*
X148680000Y-102680000D01*
D29*
%TO.N,LED_STB*%
X158840000Y-105660000D02*
X158840000Y-100030000D01*
X158000000Y-106500000D02*
X158840000Y-105660000D01*
X159000000Y-110500000D02*
X158000000Y-109500000D01*
X163960000Y-110500000D02*
X159000000Y-110500000D01*
X158000000Y-109500000D02*
X158000000Y-106500000D01*
X165460000Y-109000000D02*
X163960000Y-110500000D01*
D31*
%TO.N,GND*%
X173000000Y-111500000D02*
X168000000Y-111500000D01*
X177500000Y-103500000D02*
X173000000Y-108000000D01*
X177500000Y-98770000D02*
X177500000Y-103500000D01*
X173000000Y-108000000D02*
X173000000Y-111500000D01*
X125820000Y-95000000D02*
X125820000Y-100030000D01*
X175000000Y-97000000D02*
X176770000Y-98770000D01*
X150880000Y-109000000D02*
X150880000Y-111380000D01*
D30*
X149500000Y-89500000D02*
X149000000Y-90000000D01*
X153000000Y-82500000D02*
X153000000Y-90000000D01*
D29*
X125895000Y-94925000D02*
X125820000Y-95000000D01*
D31*
X145000000Y-90000000D02*
X149000000Y-90000000D01*
X137420000Y-67000000D02*
X137420000Y-64080000D01*
X175500000Y-89500000D02*
X177500000Y-89500000D01*
X175000000Y-90000000D02*
X175000000Y-97000000D01*
D30*
X158575000Y-82575000D02*
X158500000Y-82500000D01*
D31*
X125820000Y-90000000D02*
X142000000Y-90000000D01*
D30*
X166500000Y-82500000D02*
X166500000Y-89500000D01*
D31*
X125820000Y-82000000D02*
X125820000Y-86000000D01*
X125820000Y-86000000D02*
X125820000Y-89000000D01*
X168960000Y-64620000D02*
X168960000Y-67000000D01*
D30*
X160500000Y-87000000D02*
X160500000Y-89500000D01*
D31*
X176770000Y-98770000D02*
X177500000Y-98770000D01*
X168000000Y-111500000D02*
X151000000Y-111500000D01*
X125820000Y-93000000D02*
X125820000Y-95000000D01*
X142000000Y-90000000D02*
X145000000Y-90000000D01*
D29*
X154500000Y-90500000D02*
X155000000Y-90000000D01*
D31*
X162000000Y-90000000D02*
X167000000Y-90000000D01*
X125820000Y-77000000D02*
X125820000Y-82000000D01*
D29*
X125895000Y-82075000D02*
X125820000Y-82000000D01*
D30*
X158500000Y-82500000D02*
X158000000Y-83000000D01*
D31*
X167840000Y-63500000D02*
X168960000Y-64620000D01*
X175000000Y-90000000D02*
X175500000Y-89500000D01*
D30*
X162575000Y-82575000D02*
X162650000Y-82500000D01*
D31*
X167000000Y-90000000D02*
X169000000Y-90000000D01*
D30*
X146000000Y-85000000D02*
X145000000Y-86000000D01*
D29*
X168500000Y-93000000D02*
X168500000Y-90500000D01*
X168500000Y-90500000D02*
X169000000Y-90000000D01*
D30*
X133000000Y-82000000D02*
X135000000Y-82000000D01*
D29*
X128000000Y-94925000D02*
X125895000Y-94925000D01*
D30*
X158500000Y-82500000D02*
X153000000Y-82500000D01*
D31*
X125820000Y-89000000D02*
X125820000Y-90000000D01*
D30*
X149500000Y-82500000D02*
X149500000Y-89500000D01*
X145000000Y-86000000D02*
X145000000Y-90000000D01*
D29*
X161500000Y-90500000D02*
X162000000Y-90000000D01*
D30*
X149500000Y-82500000D02*
X153000000Y-82500000D01*
X135000000Y-82000000D02*
X135500000Y-82500000D01*
D31*
X169000000Y-90000000D02*
X175000000Y-90000000D01*
X158000000Y-90000000D02*
X160000000Y-90000000D01*
X137420000Y-64080000D02*
X136840000Y-63500000D01*
X154840000Y-63500000D02*
X163840000Y-63500000D01*
D29*
X154500000Y-93000000D02*
X154500000Y-90500000D01*
D30*
X158000000Y-83000000D02*
X158000000Y-90000000D01*
D31*
X163880000Y-67000000D02*
X163880000Y-63540000D01*
D29*
X142000000Y-95000000D02*
X142000000Y-90000000D01*
X125425000Y-99635000D02*
X125820000Y-100030000D01*
D30*
X128000000Y-82075000D02*
X129925000Y-82075000D01*
D29*
X161500000Y-93000000D02*
X161500000Y-90500000D01*
D31*
X125820000Y-90000000D02*
X125820000Y-93000000D01*
X168000000Y-109000000D02*
X168000000Y-111500000D01*
D29*
X128000000Y-82075000D02*
X125895000Y-82075000D01*
D31*
X160000000Y-90000000D02*
X162000000Y-90000000D01*
X163840000Y-63500000D02*
X167840000Y-63500000D01*
D30*
X146000000Y-82500000D02*
X146000000Y-85000000D01*
X162650000Y-82500000D02*
X166500000Y-82500000D01*
D31*
X154500000Y-63840000D02*
X154840000Y-63500000D01*
D30*
X146000000Y-82500000D02*
X149500000Y-82500000D01*
D31*
X150880000Y-111380000D02*
X151000000Y-111500000D01*
X153000000Y-90000000D02*
X155000000Y-90000000D01*
X155000000Y-90000000D02*
X158000000Y-90000000D01*
D30*
X162500000Y-82575000D02*
X162575000Y-82575000D01*
D31*
X163880000Y-63540000D02*
X163840000Y-63500000D01*
D30*
X160500000Y-89500000D02*
X160000000Y-90000000D01*
D31*
X136840000Y-63500000D02*
X154840000Y-63500000D01*
X149000000Y-90000000D02*
X153000000Y-90000000D01*
X154500000Y-67000000D02*
X154500000Y-63840000D01*
D30*
X166500000Y-89500000D02*
X167000000Y-90000000D01*
D29*
%TO.N,5V*%
X128000000Y-99670000D02*
X128360000Y-100030000D01*
X128000000Y-97000000D02*
X128000000Y-99670000D01*
%TO.N,Vcc*%
X128000000Y-79000000D02*
X129000000Y-78000000D01*
X128000000Y-77360000D02*
X128360000Y-77000000D01*
D30*
X142500000Y-82500000D02*
X139000000Y-82500000D01*
X137000000Y-86000000D02*
X135000000Y-88000000D01*
D31*
X128360000Y-77360000D02*
X129000000Y-78000000D01*
D29*
X158000000Y-93000000D02*
X157000000Y-92000000D01*
X128000000Y-80000000D02*
X128000000Y-79000000D01*
X151000000Y-93000000D02*
X151000000Y-92000000D01*
X134000000Y-87000000D02*
X135000000Y-88000000D01*
D31*
X129000000Y-78000000D02*
X131000000Y-80000000D01*
X131000000Y-84000000D02*
X134000000Y-87000000D01*
D30*
X138000000Y-86000000D02*
X137000000Y-86000000D01*
D29*
X165000000Y-93000000D02*
X165000000Y-92000000D01*
D31*
X128360000Y-77000000D02*
X128360000Y-77360000D01*
X131000000Y-80000000D02*
X131000000Y-84000000D01*
D30*
X138000000Y-86000000D02*
X138000000Y-83500000D01*
X138000000Y-83500000D02*
X139000000Y-82500000D01*
%TO.N,ENC_A*%
X166500000Y-80425000D02*
X166500000Y-79500000D01*
X166500000Y-79500000D02*
X169000000Y-77000000D01*
%TO.N,ENC_B*%
X166000000Y-77000000D02*
X166460000Y-77000000D01*
X162500000Y-80500000D02*
X166000000Y-77000000D01*
%TO.N,ENC_SW*%
X160500000Y-84925000D02*
X160500000Y-80420000D01*
X160500000Y-80420000D02*
X163920000Y-77000000D01*
%TO.N,RESET_SW*%
X139000000Y-103000000D02*
X141060000Y-100940000D01*
X131840000Y-107500000D02*
X136340000Y-103000000D01*
X136340000Y-103000000D02*
X139000000Y-103000000D01*
X141060000Y-100940000D02*
X141060000Y-100030000D01*
D29*
%TO.N,ADC4*%
X153760000Y-100240000D02*
X153760000Y-100030000D01*
%TO.N,LED_DIO*%
X168500000Y-95000000D02*
X165000000Y-95000000D01*
X165000000Y-95000000D02*
X165000000Y-97000000D01*
X165000000Y-97000000D02*
X163920000Y-98080000D01*
X163920000Y-98080000D02*
X163920000Y-100030000D01*
%TO.N,LED_STB*%
X155000000Y-97000000D02*
X155810000Y-97000000D01*
X151000000Y-95000000D02*
X154500000Y-95000000D01*
X155810000Y-97000000D02*
X158840000Y-100030000D01*
X154500000Y-95000000D02*
X154500000Y-96500000D01*
X154500000Y-96500000D02*
X155000000Y-97000000D01*
%TO.N,LED_CLK*%
X161500000Y-99910000D02*
X161380000Y-100030000D01*
X161500000Y-95000000D02*
X161500000Y-99910000D01*
X158000000Y-95000000D02*
X161500000Y-95000000D01*
D30*
%TO.N,SW_EX1*%
X141060000Y-77000000D02*
X143060000Y-79000000D01*
X148000000Y-79000000D02*
X149500000Y-80500000D01*
X143060000Y-79000000D02*
X148000000Y-79000000D01*
D29*
%TO.N,TC_SCK*%
X132340000Y-67000000D02*
X133840000Y-68500000D01*
X156300000Y-76220000D02*
X156300000Y-77000000D01*
X133840000Y-68500000D02*
X150140000Y-68500000D01*
D30*
X149420000Y-67000000D02*
X149420000Y-67780000D01*
X149420000Y-67780000D02*
X150140000Y-68500000D01*
D29*
%TO.N,TC_SO*%
X127260000Y-67000000D02*
X130760000Y-70500000D01*
X130760000Y-70500000D02*
X134840000Y-70500000D01*
D30*
%TO.N,SW_MODE*%
X161380000Y-77000000D02*
X158500000Y-79880000D01*
X158500000Y-79880000D02*
X158500000Y-80500000D01*
%TO.N,SW_EX2*%
X143600000Y-77000000D02*
X145026000Y-78426000D01*
X150926000Y-78426000D02*
X153000000Y-80500000D01*
X145026000Y-78426000D02*
X150926000Y-78426000D01*
%TO.N,EX_CLK*%
X141000000Y-80259232D02*
X141000000Y-81000000D01*
X137980000Y-79000000D02*
X139000000Y-79000000D01*
X139000000Y-79000000D02*
X139740768Y-79000000D01*
X135980000Y-77000000D02*
X137980000Y-79000000D01*
X140000000Y-85000000D02*
X141000000Y-84000000D01*
X141000000Y-84000000D02*
X143000000Y-86000000D01*
X139740768Y-79000000D02*
X140740768Y-80000000D01*
X140000000Y-86000000D02*
X140000000Y-85000000D01*
X140870384Y-80129616D02*
X141000000Y-80259232D01*
X140740768Y-80000000D02*
X140870384Y-80129616D01*
%TO.N,EX_STB*%
X142500000Y-80500000D02*
X142020000Y-80500000D01*
X142020000Y-80500000D02*
X138520000Y-77000000D01*
X146000000Y-80500000D02*
X142500000Y-80500000D01*
%TO.N,EX_DIO*%
X139000000Y-80500000D02*
X135500000Y-80500000D01*
X133440000Y-78440000D02*
X133440000Y-77000000D01*
X135500000Y-80500000D02*
X133440000Y-78440000D01*
%TD*%
M02*
