%TF.GenerationSoftware,KiCad,Pcbnew,9.0.0*%
%TF.CreationDate,2025-03-04T16:47:24-08:00*%
%TF.ProjectId,ESPBrewRIMS_PCB,45535042-7265-4775-9249-4d535f504342,rev?*%
%TF.SameCoordinates,Original*%
%TF.FileFunction,Copper,L2,Bot*%
%TF.FilePolarity,Positive*%
%FSLAX46Y46*%
G04 Gerber Fmt 4.6, Leading zero omitted, Abs format (unit mm)*
G04 Created by KiCad (PCBNEW 9.0.0) date 2025-03-04 16:47:24*
%MOMM*%
%LPD*%
G01*
G04 APERTURE LIST*
G04 Aperture macros list*
%AMRoundRect*
0 Rectangle with rounded corners*
0 $1 Rounding radius*
0 $2 $3 $4 $5 $6 $7 $8 $9 X,Y pos of 4 corners*
0 Add a 4 corners polygon primitive as box body*
4,1,4,$2,$3,$4,$5,$6,$7,$8,$9,$2,$3,0*
0 Add four circle primitives for the rounded corners*
1,1,$1+$1,$2,$3*
1,1,$1+$1,$4,$5*
1,1,$1+$1,$6,$7*
1,1,$1+$1,$8,$9*
0 Add four rect primitives between the rounded corners*
20,1,$1+$1,$2,$3,$4,$5,0*
20,1,$1+$1,$4,$5,$6,$7,0*
20,1,$1+$1,$6,$7,$8,$9,0*
20,1,$1+$1,$8,$9,$2,$3,0*%
G04 Aperture macros list end*
%TA.AperFunction,ComponentPad*%
%ADD10C,1.740000*%
%TD*%
%TA.AperFunction,ComponentPad*%
%ADD11RoundRect,0.250000X0.620000X0.620000X-0.620000X0.620000X-0.620000X-0.620000X0.620000X-0.620000X0*%
%TD*%
%TA.AperFunction,ComponentPad*%
%ADD12R,1.700000X1.700000*%
%TD*%
%TA.AperFunction,ComponentPad*%
%ADD13RoundRect,0.250000X-0.620000X0.620000X-0.620000X-0.620000X0.620000X-0.620000X0.620000X0.620000X0*%
%TD*%
%TA.AperFunction,ComponentPad*%
%ADD14RoundRect,0.250000X0.620000X-0.620000X0.620000X0.620000X-0.620000X0.620000X-0.620000X-0.620000X0*%
%TD*%
%TA.AperFunction,ComponentPad*%
%ADD15RoundRect,0.250000X-0.620000X-0.620000X0.620000X-0.620000X0.620000X0.620000X-0.620000X0.620000X0*%
%TD*%
%TA.AperFunction,ComponentPad*%
%ADD16O,1.700000X1.700000*%
%TD*%
%TA.AperFunction,ComponentPad*%
%ADD17R,1.600000X1.600000*%
%TD*%
%TA.AperFunction,ComponentPad*%
%ADD18C,1.600000*%
%TD*%
%TA.AperFunction,ComponentPad*%
%ADD19O,1.300000X2.100000*%
%TD*%
%TA.AperFunction,ViaPad*%
%ADD20C,0.600000*%
%TD*%
%TA.AperFunction,Conductor*%
%ADD21C,1.000000*%
%TD*%
%TA.AperFunction,Conductor*%
%ADD22C,0.500000*%
%TD*%
%TA.AperFunction,Conductor*%
%ADD23C,0.350000*%
%TD*%
G04 APERTURE END LIST*
D10*
%TO.P,J15,5,Pin_5*%
%TO.N,TC_SO*%
X144340000Y-67000000D03*
%TO.P,J15,4,Pin_4*%
%TO.N,TC_CS1*%
X146880000Y-67000000D03*
%TO.P,J15,3,Pin_3*%
%TO.N,TC_SCK*%
X149420000Y-67000000D03*
%TO.P,J15,2,Pin_2*%
%TO.N,Vcc*%
X151960000Y-67000000D03*
D11*
%TO.P,J15,1,Pin_1*%
%TO.N,GND*%
X154500000Y-67000000D03*
%TD*%
D12*
%TO.P,J12,1,Pin_1*%
%TO.N,Net-(J12-Pin_1)*%
X145500000Y-73000000D03*
%TD*%
D13*
%TO.P,J19,1,Pin_1*%
%TO.N,Vcc*%
X115600000Y-83460000D03*
D10*
%TO.P,J19,2,Pin_2*%
%TO.N,Net-(J19-Pin_2)*%
X115600000Y-86000000D03*
%TD*%
D12*
%TO.P,J13,1,Pin_1*%
%TO.N,Net-(J13-Pin_1)*%
X149000000Y-73000000D03*
%TD*%
%TO.P,J11,1,Pin_1*%
%TO.N,Net-(J11-Pin_1)*%
X153000000Y-103500000D03*
%TD*%
%TO.P,J10,1,Pin_1*%
%TO.N,Net-(J10-Pin_1)*%
X149500000Y-103500000D03*
%TD*%
%TO.P,J9,1,Pin_1*%
%TO.N,Net-(J9-Pin_1)*%
X146000000Y-103500000D03*
%TD*%
%TO.P,J8,1,Pin_1*%
%TO.N,Net-(J8-Pin_1)*%
X142500000Y-103500000D03*
%TD*%
D14*
%TO.P,J4,1,Pin_1*%
%TO.N,GND*%
X177500000Y-98770000D03*
D10*
%TO.P,J4,2,Pin_2*%
%TO.N,ADC2*%
X177500000Y-96230000D03*
%TD*%
D14*
%TO.P,J3,1,Pin_1*%
%TO.N,GND*%
X177500000Y-89500000D03*
D10*
%TO.P,J3,2,Pin_2*%
%TO.N,ADC1*%
X177500000Y-86960000D03*
%TD*%
D15*
%TO.P,J7,1,Pin_1*%
%TO.N,LED_DIO*%
X160380000Y-109000000D03*
D10*
%TO.P,J7,2,Pin_2*%
%TO.N,LED_CLK*%
X162920000Y-109000000D03*
%TO.P,J7,3,Pin_3*%
%TO.N,LED_STB*%
X165460000Y-109000000D03*
%TO.P,J7,4,Pin_4*%
%TO.N,GND*%
X168000000Y-109000000D03*
%TO.P,J7,5,Pin_5*%
%TO.N,Vcc*%
X170540000Y-109000000D03*
%TD*%
D13*
%TO.P,J1,1,Pin_1*%
%TO.N,5V*%
X115600000Y-93000000D03*
D10*
%TO.P,J1,2,Pin_2*%
%TO.N,GND*%
X115600000Y-95540000D03*
%TD*%
D15*
%TO.P,J2,1,Pin_1*%
%TO.N,RESET_SW*%
X131840000Y-109000000D03*
D10*
%TO.P,J2,2,Pin_2*%
%TO.N,Net-(J2-Pin_2)*%
X134380000Y-109000000D03*
%TD*%
D15*
%TO.P,J6,1,Pin_1*%
%TO.N,GND*%
X141380000Y-109000000D03*
D10*
%TO.P,J6,2,Pin_2*%
%TO.N,ADC4*%
X143920000Y-109000000D03*
%TD*%
D11*
%TO.P,J16,1,Pin_1*%
%TO.N,GND*%
X137420000Y-67000000D03*
D10*
%TO.P,J16,2,Pin_2*%
%TO.N,Vcc*%
X134880000Y-67000000D03*
%TO.P,J16,3,Pin_3*%
%TO.N,TC_SCK*%
X132340000Y-67000000D03*
%TO.P,J16,4,Pin_4*%
%TO.N,TC_CS2*%
X129800000Y-67000000D03*
%TO.P,J16,5,Pin_5*%
%TO.N,TC_SO*%
X127260000Y-67000000D03*
%TD*%
D12*
%TO.P,J20,1,Pin_1*%
%TO.N,EX_DIO*%
X122000000Y-74660000D03*
D16*
%TO.P,J20,2,Pin_2*%
%TO.N,EX_CLK*%
X122000000Y-72120000D03*
%TO.P,J20,3,Pin_3*%
%TO.N,EX_STB*%
X122000000Y-69580000D03*
%TO.P,J20,4,Pin_4*%
%TO.N,GND*%
X122000000Y-67040000D03*
%TO.P,J20,5,Pin_5*%
%TO.N,Vcc*%
X122000000Y-64500000D03*
%TD*%
D15*
%TO.P,J5,1,Pin_1*%
%TO.N,GND*%
X150880000Y-109000000D03*
D10*
%TO.P,J5,2,Pin_2*%
%TO.N,ADC3*%
X153420000Y-109000000D03*
%TD*%
D11*
%TO.P,J18,1,Pin_1*%
%TO.N,ENC_SW*%
X171500000Y-67000000D03*
D10*
%TO.P,J18,2,Pin_2*%
%TO.N,GND*%
X168960000Y-67000000D03*
%TO.P,J18,3,Pin_3*%
%TO.N,ENC_A*%
X166420000Y-67000000D03*
%TO.P,J18,4,Pin_4*%
%TO.N,GND*%
X163880000Y-67000000D03*
%TO.P,J18,5,Pin_5*%
%TO.N,ENC_B*%
X161340000Y-67000000D03*
%TD*%
D14*
%TO.P,J17,1,Pin_1*%
%TO.N,Vcc*%
X177500000Y-80040000D03*
D10*
%TO.P,J17,2,Pin_2*%
%TO.N,SW_MODE*%
X177500000Y-77500000D03*
%TD*%
D17*
%TO.P,C1,1*%
%TO.N,5V*%
X124000000Y-106000000D03*
D18*
%TO.P,C1,2*%
%TO.N,GND*%
X124000000Y-109500000D03*
%TD*%
D13*
%TO.P,J14,1,Pin_1*%
%TO.N,Vcc*%
X115640000Y-74000000D03*
D10*
%TO.P,J14,2,Pin_2*%
%TO.N,Net-(J14-Pin_2)*%
X115640000Y-76540000D03*
%TD*%
D19*
%TO.P,U1,1,J2_GND*%
%TO.N,GND*%
X125820000Y-100030000D03*
%TO.P,U1,2,J2_5V*%
%TO.N,5V*%
X128360000Y-100030000D03*
%TO.P,U1,3,J2_Ve1*%
%TO.N,unconnected-(U1-J2_Ve1-Pad3)*%
X130900000Y-100030000D03*
%TO.P,U1,4,J2_Ve2*%
%TO.N,unconnected-(U1-J2_Ve2-Pad4)*%
X133440000Y-100030000D03*
%TO.P,U1,5,J2_GPIO44*%
%TO.N,unconnected-(U1-J2_GPIO44-Pad5)*%
X135980000Y-100030000D03*
%TO.P,U1,6,J2_GPIO43*%
%TO.N,unconnected-(U1-J2_GPIO43-Pad6)*%
X138520000Y-100030000D03*
%TO.P,U1,7,J2_RST*%
%TO.N,RESET_SW*%
X141060000Y-100030000D03*
%TO.P,U1,8,J2_GPIO0*%
%TO.N,Net-(J8-Pin_1)*%
X143600000Y-100030000D03*
%TO.P,U1,9,J2_GPIO21*%
%TO.N,Net-(J9-Pin_1)*%
X146140000Y-100030000D03*
%TO.P,U1,10,J2_GPIO20*%
%TO.N,Net-(J10-Pin_1)*%
X148680000Y-100030000D03*
%TO.P,U1,11,J2_GPIO19*%
%TO.N,Net-(J11-Pin_1)*%
X151220000Y-100030000D03*
%TO.P,U1,12,J2_GPIO7*%
%TO.N,ADC4*%
X153760000Y-100030000D03*
%TO.P,U1,13,J2_GPIO6*%
%TO.N,ADC3*%
X156300000Y-100030000D03*
%TO.P,U1,14,J2_GPIO5*%
%TO.N,LED_STB*%
X158840000Y-100030000D03*
%TO.P,U1,15,J2_GPIO4*%
%TO.N,LED_CLK*%
X161380000Y-100030000D03*
%TO.P,U1,16,J2_GPIO3*%
%TO.N,LED_DIO*%
X163920000Y-100030000D03*
%TO.P,U1,17,J2_GPIO2*%
%TO.N,ADC1*%
X166460000Y-100030000D03*
%TO.P,U1,18,J2_GPIO1*%
%TO.N,ADC2*%
X169000000Y-100030000D03*
%TO.P,U1,19,J3_GPIO46*%
%TO.N,ENC_A*%
X169000000Y-77000000D03*
%TO.P,U1,20,J3_GPIO45*%
%TO.N,ENC_B*%
X166460000Y-77000000D03*
%TO.P,U1,21,J3_GPIO42*%
%TO.N,ENC_SW*%
X163920000Y-77000000D03*
%TO.P,U1,22,J3_GPIO41*%
%TO.N,SW_MODE*%
X161380000Y-77000000D03*
%TO.P,U1,23,J3_GPIO40*%
%TO.N,TC_SO*%
X158840000Y-77000000D03*
%TO.P,U1,24,J3_GPIO39*%
%TO.N,TC_SCK*%
X156300000Y-77000000D03*
%TO.P,U1,25,J3_GPIO38*%
%TO.N,TC_CS1*%
X153760000Y-77000000D03*
%TO.P,U1,26,J3_GPIO37*%
%TO.N,TC_CS2*%
X151220000Y-77000000D03*
%TO.P,U1,27,J3_GPIO36*%
%TO.N,Net-(J13-Pin_1)*%
X148680000Y-77000000D03*
%TO.P,U1,28,J3_GPIO35*%
%TO.N,Net-(J12-Pin_1)*%
X146140000Y-77000000D03*
%TO.P,U1,29,J3_GPIO34*%
%TO.N,SW_EX2*%
X143600000Y-77000000D03*
%TO.P,U1,30,J3_GPIO33*%
%TO.N,SW_EX1*%
X141060000Y-77000000D03*
%TO.P,U1,31,J3_GPIO47*%
%TO.N,EX_STB*%
X138520000Y-77000000D03*
%TO.P,U1,32,J3_GPIO48*%
%TO.N,EX_CLK*%
X135980000Y-77000000D03*
%TO.P,U1,33,J3_GPIO26*%
%TO.N,EX_DIO*%
X133440000Y-77000000D03*
%TO.P,U1,34,J3_3v3b*%
%TO.N,unconnected-(U1-J3_3v3b-Pad34)*%
X130900000Y-77000000D03*
%TO.P,U1,35,J3_3V3a*%
%TO.N,Vcc*%
X128360000Y-77000000D03*
%TO.P,U1,36,J3_GND*%
%TO.N,GND*%
X125820000Y-77000000D03*
%TD*%
D20*
%TO.N,SW_EX2*%
X123500000Y-85500000D03*
%TO.N,GND*%
X129925000Y-82075000D03*
X133000000Y-82000000D03*
%TO.N,Vcc*%
X151000000Y-92000000D03*
X165000000Y-92000000D03*
X134000000Y-87000000D03*
X157000000Y-92000000D03*
X135000000Y-88000000D03*
%TO.N,SW_EX1*%
X124000000Y-82000000D03*
%TO.N,TC_CS1*%
X147840000Y-69500000D03*
%TO.N,TC_SO*%
X134840000Y-70500000D03*
%TO.N,EX_CLK*%
X141000000Y-84000000D03*
X141000000Y-81000000D03*
%TD*%
D21*
%TO.N,Vcc*%
X119000000Y-67500000D02*
X119000000Y-65500000D01*
X115640000Y-70860000D02*
X119000000Y-67500000D01*
X119000000Y-65500000D02*
X120000000Y-64500000D01*
X120000000Y-64500000D02*
X122000000Y-64500000D01*
X115640000Y-74000000D02*
X115640000Y-70860000D01*
D22*
%TO.N,ENC_SW*%
X171500000Y-69660000D02*
X171500000Y-67000000D01*
X167160000Y-74000000D02*
X171500000Y-69660000D01*
%TO.N,TC_SO*%
X152340000Y-70500000D02*
X158840000Y-77000000D01*
X144840000Y-70500000D02*
X152340000Y-70500000D01*
%TO.N,Net-(J13-Pin_1)*%
X148680000Y-73320000D02*
X149000000Y-73000000D01*
X148680000Y-77000000D02*
X148680000Y-73320000D01*
%TO.N,Net-(J12-Pin_1)*%
X146140000Y-73640000D02*
X145500000Y-73000000D01*
X146140000Y-77000000D02*
X146140000Y-73640000D01*
X146140000Y-73140000D02*
X146000000Y-73000000D01*
D21*
%TO.N,Vcc*%
X128360000Y-75564372D02*
X128360000Y-77000000D01*
X134880000Y-69044372D02*
X128360000Y-75564372D01*
X134880000Y-67000000D02*
X134880000Y-69044372D01*
%TO.N,GND*%
X123040000Y-67040000D02*
X122000000Y-67040000D01*
X125820000Y-69820000D02*
X123040000Y-67040000D01*
X125820000Y-77000000D02*
X125820000Y-69820000D01*
D22*
%TO.N,SW_EX2*%
X126000000Y-83000000D02*
X123500000Y-85500000D01*
D21*
%TO.N,Vcc*%
X114460000Y-83460000D02*
X115600000Y-83460000D01*
X113500000Y-82500000D02*
X114460000Y-83460000D01*
X113500000Y-80000000D02*
X113500000Y-82500000D01*
X114000000Y-74000000D02*
X115640000Y-74000000D01*
X113500000Y-80000000D02*
X113500000Y-74500000D01*
X113500000Y-74500000D02*
X114000000Y-74000000D01*
X125360000Y-80000000D02*
X113500000Y-80000000D01*
X128360000Y-77000000D02*
X125360000Y-80000000D01*
%TO.N,5V*%
X124830000Y-96500000D02*
X128360000Y-100030000D01*
X123500000Y-96500000D02*
X124830000Y-96500000D01*
X120000000Y-93000000D02*
X123500000Y-96500000D01*
X115600000Y-93000000D02*
X120000000Y-93000000D01*
%TO.N,GND*%
X122000000Y-107500000D02*
X124000000Y-109500000D01*
D22*
%TO.N,ADC3*%
X156300000Y-106120000D02*
X156300000Y-100030000D01*
X153420000Y-109000000D02*
X156300000Y-106120000D01*
%TO.N,ADC4*%
X146602000Y-109000000D02*
X143920000Y-109000000D01*
X151000000Y-102790000D02*
X151000000Y-104602000D01*
X151000000Y-104602000D02*
X146602000Y-109000000D01*
X153760000Y-100030000D02*
X151000000Y-102790000D01*
%TO.N,LED_DIO*%
X163920000Y-101080000D02*
X163920000Y-100030000D01*
X160380000Y-104620000D02*
X163920000Y-101080000D01*
X160380000Y-109000000D02*
X160380000Y-104620000D01*
D21*
%TO.N,Vcc*%
X171500000Y-108040000D02*
X170540000Y-109000000D01*
X171500000Y-107500000D02*
X171500000Y-108040000D01*
%TO.N,GND*%
X122000000Y-103850000D02*
X125820000Y-100030000D01*
D23*
X130000000Y-82000000D02*
X133000000Y-82000000D01*
D21*
X122000000Y-107500000D02*
X122000000Y-103850000D01*
D23*
X129925000Y-82075000D02*
X130000000Y-82000000D01*
D21*
%TO.N,5V*%
X128360000Y-100030000D02*
X128360000Y-101640000D01*
X128360000Y-101640000D02*
X124000000Y-106000000D01*
D22*
%TO.N,Vcc*%
X151000000Y-92000000D02*
X151000000Y-88000000D01*
D21*
X180000000Y-99000000D02*
X171500000Y-107500000D01*
X150840000Y-64500000D02*
X151960000Y-65620000D01*
X134000000Y-87000000D02*
X135000000Y-88000000D01*
X165000000Y-88000000D02*
X171000000Y-88000000D01*
D22*
X157000000Y-92000000D02*
X157000000Y-88000000D01*
D21*
X151960000Y-65620000D02*
X151960000Y-67000000D01*
D22*
X165000000Y-92000000D02*
X165000000Y-88000000D01*
D21*
X175960000Y-80040000D02*
X177500000Y-80040000D01*
X134880000Y-65769635D02*
X136149635Y-64500000D01*
X174000000Y-82000000D02*
X175960000Y-80040000D01*
X134880000Y-67000000D02*
X134880000Y-65769635D01*
X135000000Y-88000000D02*
X151000000Y-88000000D01*
X136149635Y-64500000D02*
X150840000Y-64500000D01*
X157000000Y-88000000D02*
X165000000Y-88000000D01*
X174000000Y-85000000D02*
X174000000Y-82000000D01*
X180000000Y-82540000D02*
X180000000Y-99000000D01*
X171000000Y-88000000D02*
X174000000Y-85000000D01*
X177500000Y-80040000D02*
X180000000Y-82540000D01*
X151000000Y-88000000D02*
X157000000Y-88000000D01*
D22*
%TO.N,ENC_SW*%
X167160000Y-74000000D02*
X165000000Y-74000000D01*
X163920000Y-75080000D02*
X163920000Y-77000000D01*
X165000000Y-74000000D02*
X163920000Y-75080000D01*
%TO.N,ADC1*%
X172000000Y-90000000D02*
X175040000Y-86960000D01*
X166460000Y-100030000D02*
X166460000Y-99540000D01*
X166460000Y-99540000D02*
X172000000Y-94000000D01*
X172000000Y-94000000D02*
X172000000Y-90000000D01*
X175040000Y-86960000D02*
X177500000Y-86960000D01*
%TO.N,ADC2*%
X171770000Y-96230000D02*
X169000000Y-99000000D01*
X169000000Y-99000000D02*
X169000000Y-100030000D01*
X177500000Y-96230000D02*
X171770000Y-96230000D01*
%TO.N,SW_EX1*%
X125000000Y-82000000D02*
X128000000Y-79000000D01*
X128000000Y-79000000D02*
X139060000Y-79000000D01*
X124000000Y-82000000D02*
X125000000Y-82000000D01*
X139060000Y-79000000D02*
X141060000Y-77000000D01*
%TO.N,TC_CS1*%
X146880000Y-68540000D02*
X147840000Y-69500000D01*
X146880000Y-67000000D02*
X146880000Y-68540000D01*
%TO.N,TC_SO*%
X134840000Y-70500000D02*
X144840000Y-70500000D01*
X144340000Y-67000000D02*
X144340000Y-69000000D01*
X144340000Y-69000000D02*
X144840000Y-69500000D01*
X144840000Y-69500000D02*
X144840000Y-70500000D01*
%TO.N,SW_MODE*%
X163380000Y-79000000D02*
X174000000Y-79000000D01*
X175500000Y-77500000D02*
X177500000Y-77500000D01*
X174000000Y-79000000D02*
X175500000Y-77500000D01*
X161380000Y-77000000D02*
X163380000Y-79000000D01*
%TO.N,SW_EX2*%
X129000000Y-80000000D02*
X126000000Y-83000000D01*
X143600000Y-77000000D02*
X140600000Y-80000000D01*
X140600000Y-80000000D02*
X129000000Y-80000000D01*
D23*
%TO.N,EX_CLK*%
X141000000Y-81000000D02*
X141000000Y-84000000D01*
%TD*%
M02*
