M48
; DRILL file {KiCad 9.0.0} date 2025-03-04T16:47:22-0800
; FORMAT={-:-/ absolute / metric / decimal}
; #@! TF.CreationDate,2025-03-04T16:47:22-08:00
; #@! TF.GenerationSoftware,Kicad,Pcbnew,9.0.0
; #@! TF.FileFunction,Plated,1,2,PTH
FMAT,2
METRIC
; #@! TA.AperFunction,Plated,PTH,ViaDrill
T1C0.300
; #@! TA.AperFunction,Plated,PTH,ComponentDrill
T2C0.800
; #@! TA.AperFunction,Plated,PTH,ComponentDrill
T3C0.900
; #@! TA.AperFunction,Plated,PTH,ComponentDrill
T4C1.000
; #@! TA.AperFunction,Plated,PTH,ComponentDrill
T5C1.090
%
G90
G05
T1
X123.5Y-85.5
X124.0Y-82.0
X129.925Y-82.075
X133.0Y-82.0
X134.0Y-87.0
X134.84Y-70.5
X135.0Y-88.0
X141.0Y-81.0
X141.0Y-84.0
X147.84Y-69.5
X151.0Y-92.0
X157.0Y-92.0
X165.0Y-92.0
T2
X124.0Y-106.0
X124.0Y-109.5
T3
X125.82Y-77.0
X125.82Y-100.03
X128.36Y-77.0
X128.36Y-100.03
X130.9Y-77.0
X130.9Y-100.03
X133.44Y-77.0
X133.44Y-100.03
X135.98Y-77.0
X135.98Y-100.03
X138.52Y-77.0
X138.52Y-100.03
X141.06Y-77.0
X141.06Y-100.03
X143.6Y-77.0
X143.6Y-100.03
X146.14Y-77.0
X146.14Y-100.03
X148.68Y-77.0
X148.68Y-100.03
X151.22Y-77.0
X151.22Y-100.03
X153.76Y-77.0
X153.76Y-100.03
X156.3Y-77.0
X156.3Y-100.03
X158.84Y-77.0
X158.84Y-100.03
X161.38Y-77.0
X161.38Y-100.03
X163.92Y-77.0
X163.92Y-100.03
X166.46Y-77.0
X166.46Y-100.03
X169.0Y-77.0
X169.0Y-100.03
T4
X122.0Y-64.5
X122.0Y-67.04
X122.0Y-69.58
X122.0Y-72.12
X122.0Y-74.66
X142.5Y-103.5
X145.5Y-73.0
X146.0Y-103.5
X149.0Y-73.0
X149.5Y-103.5
X153.0Y-103.5
T5
X115.6Y-83.46
X115.6Y-86.0
X115.6Y-93.0
X115.6Y-95.54
X115.64Y-74.0
X115.64Y-76.54
X127.26Y-67.0
X129.8Y-67.0
X131.84Y-109.0
X132.34Y-67.0
X134.38Y-109.0
X134.88Y-67.0
X137.42Y-67.0
X141.38Y-109.0
X143.92Y-109.0
X144.34Y-67.0
X146.88Y-67.0
X149.42Y-67.0
X150.88Y-109.0
X151.96Y-67.0
X153.42Y-109.0
X154.5Y-67.0
X160.38Y-109.0
X161.34Y-67.0
X162.92Y-109.0
X163.88Y-67.0
X165.46Y-109.0
X166.42Y-67.0
X168.0Y-109.0
X168.96Y-67.0
X170.54Y-109.0
X171.5Y-67.0
X177.5Y-77.5
X177.5Y-80.04
X177.5Y-86.96
X177.5Y-89.5
X177.5Y-96.23
X177.5Y-98.77
M30
