%TF.GenerationSoftware,KiCad,Pcbnew,9.0.0*%
%TF.CreationDate,2025-03-04T16:47:24-08:00*%
%TF.ProjectId,ESPBrewRIMS_PCB,45535042-7265-4775-9249-4d535f504342,rev?*%
%TF.SameCoordinates,Original*%
%TF.FileFunction,Legend,Top*%
%TF.FilePolarity,Positive*%
%FSLAX46Y46*%
G04 Gerber Fmt 4.6, Leading zero omitted, Abs format (unit mm)*
G04 Created by KiCad (PCBNEW 9.0.0) date 2025-03-04 16:47:24*
%MOMM*%
%LPD*%
G01*
G04 APERTURE LIST*
%ADD10C,0.150000*%
%ADD11C,0.120000*%
G04 APERTURE END LIST*
D10*
X148190476Y-69954819D02*
X148190476Y-70669104D01*
X148190476Y-70669104D02*
X148142857Y-70811961D01*
X148142857Y-70811961D02*
X148047619Y-70907200D01*
X148047619Y-70907200D02*
X147904762Y-70954819D01*
X147904762Y-70954819D02*
X147809524Y-70954819D01*
X149190476Y-70954819D02*
X148619048Y-70954819D01*
X148904762Y-70954819D02*
X148904762Y-69954819D01*
X148904762Y-69954819D02*
X148809524Y-70097676D01*
X148809524Y-70097676D02*
X148714286Y-70192914D01*
X148714286Y-70192914D02*
X148619048Y-70240533D01*
X150095238Y-69954819D02*
X149619048Y-69954819D01*
X149619048Y-69954819D02*
X149571429Y-70431009D01*
X149571429Y-70431009D02*
X149619048Y-70383390D01*
X149619048Y-70383390D02*
X149714286Y-70335771D01*
X149714286Y-70335771D02*
X149952381Y-70335771D01*
X149952381Y-70335771D02*
X150047619Y-70383390D01*
X150047619Y-70383390D02*
X150095238Y-70431009D01*
X150095238Y-70431009D02*
X150142857Y-70526247D01*
X150142857Y-70526247D02*
X150142857Y-70764342D01*
X150142857Y-70764342D02*
X150095238Y-70859580D01*
X150095238Y-70859580D02*
X150047619Y-70907200D01*
X150047619Y-70907200D02*
X149952381Y-70954819D01*
X149952381Y-70954819D02*
X149714286Y-70954819D01*
X149714286Y-70954819D02*
X149619048Y-70907200D01*
X149619048Y-70907200D02*
X149571429Y-70859580D01*
X142454819Y-73809523D02*
X143169104Y-73809523D01*
X143169104Y-73809523D02*
X143311961Y-73857142D01*
X143311961Y-73857142D02*
X143407200Y-73952380D01*
X143407200Y-73952380D02*
X143454819Y-74095237D01*
X143454819Y-74095237D02*
X143454819Y-74190475D01*
X143454819Y-72809523D02*
X143454819Y-73380951D01*
X143454819Y-73095237D02*
X142454819Y-73095237D01*
X142454819Y-73095237D02*
X142597676Y-73190475D01*
X142597676Y-73190475D02*
X142692914Y-73285713D01*
X142692914Y-73285713D02*
X142740533Y-73380951D01*
X142550057Y-72428570D02*
X142502438Y-72380951D01*
X142502438Y-72380951D02*
X142454819Y-72285713D01*
X142454819Y-72285713D02*
X142454819Y-72047618D01*
X142454819Y-72047618D02*
X142502438Y-71952380D01*
X142502438Y-71952380D02*
X142550057Y-71904761D01*
X142550057Y-71904761D02*
X142645295Y-71857142D01*
X142645295Y-71857142D02*
X142740533Y-71857142D01*
X142740533Y-71857142D02*
X142883390Y-71904761D01*
X142883390Y-71904761D02*
X143454819Y-72476189D01*
X143454819Y-72476189D02*
X143454819Y-71857142D01*
X118804819Y-83809523D02*
X119519104Y-83809523D01*
X119519104Y-83809523D02*
X119661961Y-83857142D01*
X119661961Y-83857142D02*
X119757200Y-83952380D01*
X119757200Y-83952380D02*
X119804819Y-84095237D01*
X119804819Y-84095237D02*
X119804819Y-84190475D01*
X119804819Y-82809523D02*
X119804819Y-83380951D01*
X119804819Y-83095237D02*
X118804819Y-83095237D01*
X118804819Y-83095237D02*
X118947676Y-83190475D01*
X118947676Y-83190475D02*
X119042914Y-83285713D01*
X119042914Y-83285713D02*
X119090533Y-83380951D01*
X119804819Y-82333332D02*
X119804819Y-82142856D01*
X119804819Y-82142856D02*
X119757200Y-82047618D01*
X119757200Y-82047618D02*
X119709580Y-81999999D01*
X119709580Y-81999999D02*
X119566723Y-81904761D01*
X119566723Y-81904761D02*
X119376247Y-81857142D01*
X119376247Y-81857142D02*
X118995295Y-81857142D01*
X118995295Y-81857142D02*
X118900057Y-81904761D01*
X118900057Y-81904761D02*
X118852438Y-81952380D01*
X118852438Y-81952380D02*
X118804819Y-82047618D01*
X118804819Y-82047618D02*
X118804819Y-82238094D01*
X118804819Y-82238094D02*
X118852438Y-82333332D01*
X118852438Y-82333332D02*
X118900057Y-82380951D01*
X118900057Y-82380951D02*
X118995295Y-82428570D01*
X118995295Y-82428570D02*
X119233390Y-82428570D01*
X119233390Y-82428570D02*
X119328628Y-82380951D01*
X119328628Y-82380951D02*
X119376247Y-82333332D01*
X119376247Y-82333332D02*
X119423866Y-82238094D01*
X119423866Y-82238094D02*
X119423866Y-82047618D01*
X119423866Y-82047618D02*
X119376247Y-81952380D01*
X119376247Y-81952380D02*
X119328628Y-81904761D01*
X119328628Y-81904761D02*
X119233390Y-81857142D01*
X120357142Y-87604819D02*
X120023809Y-87128628D01*
X119785714Y-87604819D02*
X119785714Y-86604819D01*
X119785714Y-86604819D02*
X120166666Y-86604819D01*
X120166666Y-86604819D02*
X120261904Y-86652438D01*
X120261904Y-86652438D02*
X120309523Y-86700057D01*
X120309523Y-86700057D02*
X120357142Y-86795295D01*
X120357142Y-86795295D02*
X120357142Y-86938152D01*
X120357142Y-86938152D02*
X120309523Y-87033390D01*
X120309523Y-87033390D02*
X120261904Y-87081009D01*
X120261904Y-87081009D02*
X120166666Y-87128628D01*
X120166666Y-87128628D02*
X119785714Y-87128628D01*
X121309523Y-87604819D02*
X120738095Y-87604819D01*
X121023809Y-87604819D02*
X121023809Y-86604819D01*
X121023809Y-86604819D02*
X120928571Y-86747676D01*
X120928571Y-86747676D02*
X120833333Y-86842914D01*
X120833333Y-86842914D02*
X120738095Y-86890533D01*
X121880952Y-87033390D02*
X121785714Y-86985771D01*
X121785714Y-86985771D02*
X121738095Y-86938152D01*
X121738095Y-86938152D02*
X121690476Y-86842914D01*
X121690476Y-86842914D02*
X121690476Y-86795295D01*
X121690476Y-86795295D02*
X121738095Y-86700057D01*
X121738095Y-86700057D02*
X121785714Y-86652438D01*
X121785714Y-86652438D02*
X121880952Y-86604819D01*
X121880952Y-86604819D02*
X122071428Y-86604819D01*
X122071428Y-86604819D02*
X122166666Y-86652438D01*
X122166666Y-86652438D02*
X122214285Y-86700057D01*
X122214285Y-86700057D02*
X122261904Y-86795295D01*
X122261904Y-86795295D02*
X122261904Y-86842914D01*
X122261904Y-86842914D02*
X122214285Y-86938152D01*
X122214285Y-86938152D02*
X122166666Y-86985771D01*
X122166666Y-86985771D02*
X122071428Y-87033390D01*
X122071428Y-87033390D02*
X121880952Y-87033390D01*
X121880952Y-87033390D02*
X121785714Y-87081009D01*
X121785714Y-87081009D02*
X121738095Y-87128628D01*
X121738095Y-87128628D02*
X121690476Y-87223866D01*
X121690476Y-87223866D02*
X121690476Y-87414342D01*
X121690476Y-87414342D02*
X121738095Y-87509580D01*
X121738095Y-87509580D02*
X121785714Y-87557200D01*
X121785714Y-87557200D02*
X121880952Y-87604819D01*
X121880952Y-87604819D02*
X122071428Y-87604819D01*
X122071428Y-87604819D02*
X122166666Y-87557200D01*
X122166666Y-87557200D02*
X122214285Y-87509580D01*
X122214285Y-87509580D02*
X122261904Y-87414342D01*
X122261904Y-87414342D02*
X122261904Y-87223866D01*
X122261904Y-87223866D02*
X122214285Y-87128628D01*
X122214285Y-87128628D02*
X122166666Y-87081009D01*
X122166666Y-87081009D02*
X122071428Y-87033390D01*
X120357142Y-81104819D02*
X120023809Y-80628628D01*
X119785714Y-81104819D02*
X119785714Y-80104819D01*
X119785714Y-80104819D02*
X120166666Y-80104819D01*
X120166666Y-80104819D02*
X120261904Y-80152438D01*
X120261904Y-80152438D02*
X120309523Y-80200057D01*
X120309523Y-80200057D02*
X120357142Y-80295295D01*
X120357142Y-80295295D02*
X120357142Y-80438152D01*
X120357142Y-80438152D02*
X120309523Y-80533390D01*
X120309523Y-80533390D02*
X120261904Y-80581009D01*
X120261904Y-80581009D02*
X120166666Y-80628628D01*
X120166666Y-80628628D02*
X119785714Y-80628628D01*
X121309523Y-81104819D02*
X120738095Y-81104819D01*
X121023809Y-81104819D02*
X121023809Y-80104819D01*
X121023809Y-80104819D02*
X120928571Y-80247676D01*
X120928571Y-80247676D02*
X120833333Y-80342914D01*
X120833333Y-80342914D02*
X120738095Y-80390533D01*
X121928571Y-80104819D02*
X122023809Y-80104819D01*
X122023809Y-80104819D02*
X122119047Y-80152438D01*
X122119047Y-80152438D02*
X122166666Y-80200057D01*
X122166666Y-80200057D02*
X122214285Y-80295295D01*
X122214285Y-80295295D02*
X122261904Y-80485771D01*
X122261904Y-80485771D02*
X122261904Y-80723866D01*
X122261904Y-80723866D02*
X122214285Y-80914342D01*
X122214285Y-80914342D02*
X122166666Y-81009580D01*
X122166666Y-81009580D02*
X122119047Y-81057200D01*
X122119047Y-81057200D02*
X122023809Y-81104819D01*
X122023809Y-81104819D02*
X121928571Y-81104819D01*
X121928571Y-81104819D02*
X121833333Y-81057200D01*
X121833333Y-81057200D02*
X121785714Y-81009580D01*
X121785714Y-81009580D02*
X121738095Y-80914342D01*
X121738095Y-80914342D02*
X121690476Y-80723866D01*
X121690476Y-80723866D02*
X121690476Y-80485771D01*
X121690476Y-80485771D02*
X121738095Y-80295295D01*
X121738095Y-80295295D02*
X121785714Y-80200057D01*
X121785714Y-80200057D02*
X121833333Y-80152438D01*
X121833333Y-80152438D02*
X121928571Y-80104819D01*
X150954819Y-73809523D02*
X151669104Y-73809523D01*
X151669104Y-73809523D02*
X151811961Y-73857142D01*
X151811961Y-73857142D02*
X151907200Y-73952380D01*
X151907200Y-73952380D02*
X151954819Y-74095237D01*
X151954819Y-74095237D02*
X151954819Y-74190475D01*
X151954819Y-72809523D02*
X151954819Y-73380951D01*
X151954819Y-73095237D02*
X150954819Y-73095237D01*
X150954819Y-73095237D02*
X151097676Y-73190475D01*
X151097676Y-73190475D02*
X151192914Y-73285713D01*
X151192914Y-73285713D02*
X151240533Y-73380951D01*
X150954819Y-72476189D02*
X150954819Y-71857142D01*
X150954819Y-71857142D02*
X151335771Y-72190475D01*
X151335771Y-72190475D02*
X151335771Y-72047618D01*
X151335771Y-72047618D02*
X151383390Y-71952380D01*
X151383390Y-71952380D02*
X151431009Y-71904761D01*
X151431009Y-71904761D02*
X151526247Y-71857142D01*
X151526247Y-71857142D02*
X151764342Y-71857142D01*
X151764342Y-71857142D02*
X151859580Y-71904761D01*
X151859580Y-71904761D02*
X151907200Y-71952380D01*
X151907200Y-71952380D02*
X151954819Y-72047618D01*
X151954819Y-72047618D02*
X151954819Y-72333332D01*
X151954819Y-72333332D02*
X151907200Y-72428570D01*
X151907200Y-72428570D02*
X151859580Y-72476189D01*
X167304819Y-94166666D02*
X166828628Y-94499999D01*
X167304819Y-94738094D02*
X166304819Y-94738094D01*
X166304819Y-94738094D02*
X166304819Y-94357142D01*
X166304819Y-94357142D02*
X166352438Y-94261904D01*
X166352438Y-94261904D02*
X166400057Y-94214285D01*
X166400057Y-94214285D02*
X166495295Y-94166666D01*
X166495295Y-94166666D02*
X166638152Y-94166666D01*
X166638152Y-94166666D02*
X166733390Y-94214285D01*
X166733390Y-94214285D02*
X166781009Y-94261904D01*
X166781009Y-94261904D02*
X166828628Y-94357142D01*
X166828628Y-94357142D02*
X166828628Y-94738094D01*
X166304819Y-93833332D02*
X166304819Y-93214285D01*
X166304819Y-93214285D02*
X166685771Y-93547618D01*
X166685771Y-93547618D02*
X166685771Y-93404761D01*
X166685771Y-93404761D02*
X166733390Y-93309523D01*
X166733390Y-93309523D02*
X166781009Y-93261904D01*
X166781009Y-93261904D02*
X166876247Y-93214285D01*
X166876247Y-93214285D02*
X167114342Y-93214285D01*
X167114342Y-93214285D02*
X167209580Y-93261904D01*
X167209580Y-93261904D02*
X167257200Y-93309523D01*
X167257200Y-93309523D02*
X167304819Y-93404761D01*
X167304819Y-93404761D02*
X167304819Y-93690475D01*
X167304819Y-93690475D02*
X167257200Y-93785713D01*
X167257200Y-93785713D02*
X167209580Y-93833332D01*
X127833333Y-84359580D02*
X127785714Y-84407200D01*
X127785714Y-84407200D02*
X127642857Y-84454819D01*
X127642857Y-84454819D02*
X127547619Y-84454819D01*
X127547619Y-84454819D02*
X127404762Y-84407200D01*
X127404762Y-84407200D02*
X127309524Y-84311961D01*
X127309524Y-84311961D02*
X127261905Y-84216723D01*
X127261905Y-84216723D02*
X127214286Y-84026247D01*
X127214286Y-84026247D02*
X127214286Y-83883390D01*
X127214286Y-83883390D02*
X127261905Y-83692914D01*
X127261905Y-83692914D02*
X127309524Y-83597676D01*
X127309524Y-83597676D02*
X127404762Y-83502438D01*
X127404762Y-83502438D02*
X127547619Y-83454819D01*
X127547619Y-83454819D02*
X127642857Y-83454819D01*
X127642857Y-83454819D02*
X127785714Y-83502438D01*
X127785714Y-83502438D02*
X127833333Y-83550057D01*
X128166667Y-83454819D02*
X128785714Y-83454819D01*
X128785714Y-83454819D02*
X128452381Y-83835771D01*
X128452381Y-83835771D02*
X128595238Y-83835771D01*
X128595238Y-83835771D02*
X128690476Y-83883390D01*
X128690476Y-83883390D02*
X128738095Y-83931009D01*
X128738095Y-83931009D02*
X128785714Y-84026247D01*
X128785714Y-84026247D02*
X128785714Y-84264342D01*
X128785714Y-84264342D02*
X128738095Y-84359580D01*
X128738095Y-84359580D02*
X128690476Y-84407200D01*
X128690476Y-84407200D02*
X128595238Y-84454819D01*
X128595238Y-84454819D02*
X128309524Y-84454819D01*
X128309524Y-84454819D02*
X128214286Y-84407200D01*
X128214286Y-84407200D02*
X128166667Y-84359580D01*
X173204819Y-97833333D02*
X173919104Y-97833333D01*
X173919104Y-97833333D02*
X174061961Y-97880952D01*
X174061961Y-97880952D02*
X174157200Y-97976190D01*
X174157200Y-97976190D02*
X174204819Y-98119047D01*
X174204819Y-98119047D02*
X174204819Y-98214285D01*
X173538152Y-96928571D02*
X174204819Y-96928571D01*
X173157200Y-97166666D02*
X173871485Y-97404761D01*
X173871485Y-97404761D02*
X173871485Y-96785714D01*
X173204819Y-88563333D02*
X173919104Y-88563333D01*
X173919104Y-88563333D02*
X174061961Y-88610952D01*
X174061961Y-88610952D02*
X174157200Y-88706190D01*
X174157200Y-88706190D02*
X174204819Y-88849047D01*
X174204819Y-88849047D02*
X174204819Y-88944285D01*
X173204819Y-88182380D02*
X173204819Y-87563333D01*
X173204819Y-87563333D02*
X173585771Y-87896666D01*
X173585771Y-87896666D02*
X173585771Y-87753809D01*
X173585771Y-87753809D02*
X173633390Y-87658571D01*
X173633390Y-87658571D02*
X173681009Y-87610952D01*
X173681009Y-87610952D02*
X173776247Y-87563333D01*
X173776247Y-87563333D02*
X174014342Y-87563333D01*
X174014342Y-87563333D02*
X174109580Y-87610952D01*
X174109580Y-87610952D02*
X174157200Y-87658571D01*
X174157200Y-87658571D02*
X174204819Y-87753809D01*
X174204819Y-87753809D02*
X174204819Y-88039523D01*
X174204819Y-88039523D02*
X174157200Y-88134761D01*
X174157200Y-88134761D02*
X174109580Y-88182380D01*
X153304819Y-94166666D02*
X152828628Y-94499999D01*
X153304819Y-94738094D02*
X152304819Y-94738094D01*
X152304819Y-94738094D02*
X152304819Y-94357142D01*
X152304819Y-94357142D02*
X152352438Y-94261904D01*
X152352438Y-94261904D02*
X152400057Y-94214285D01*
X152400057Y-94214285D02*
X152495295Y-94166666D01*
X152495295Y-94166666D02*
X152638152Y-94166666D01*
X152638152Y-94166666D02*
X152733390Y-94214285D01*
X152733390Y-94214285D02*
X152781009Y-94261904D01*
X152781009Y-94261904D02*
X152828628Y-94357142D01*
X152828628Y-94357142D02*
X152828628Y-94738094D01*
X152304819Y-93261904D02*
X152304819Y-93738094D01*
X152304819Y-93738094D02*
X152781009Y-93785713D01*
X152781009Y-93785713D02*
X152733390Y-93738094D01*
X152733390Y-93738094D02*
X152685771Y-93642856D01*
X152685771Y-93642856D02*
X152685771Y-93404761D01*
X152685771Y-93404761D02*
X152733390Y-93309523D01*
X152733390Y-93309523D02*
X152781009Y-93261904D01*
X152781009Y-93261904D02*
X152876247Y-93214285D01*
X152876247Y-93214285D02*
X153114342Y-93214285D01*
X153114342Y-93214285D02*
X153209580Y-93261904D01*
X153209580Y-93261904D02*
X153257200Y-93309523D01*
X153257200Y-93309523D02*
X153304819Y-93404761D01*
X153304819Y-93404761D02*
X153304819Y-93642856D01*
X153304819Y-93642856D02*
X153257200Y-93738094D01*
X153257200Y-93738094D02*
X153209580Y-93785713D01*
X141104819Y-82142857D02*
X140628628Y-82476190D01*
X141104819Y-82714285D02*
X140104819Y-82714285D01*
X140104819Y-82714285D02*
X140104819Y-82333333D01*
X140104819Y-82333333D02*
X140152438Y-82238095D01*
X140152438Y-82238095D02*
X140200057Y-82190476D01*
X140200057Y-82190476D02*
X140295295Y-82142857D01*
X140295295Y-82142857D02*
X140438152Y-82142857D01*
X140438152Y-82142857D02*
X140533390Y-82190476D01*
X140533390Y-82190476D02*
X140581009Y-82238095D01*
X140581009Y-82238095D02*
X140628628Y-82333333D01*
X140628628Y-82333333D02*
X140628628Y-82714285D01*
X141104819Y-81190476D02*
X141104819Y-81761904D01*
X141104819Y-81476190D02*
X140104819Y-81476190D01*
X140104819Y-81476190D02*
X140247676Y-81571428D01*
X140247676Y-81571428D02*
X140342914Y-81666666D01*
X140342914Y-81666666D02*
X140390533Y-81761904D01*
X140104819Y-80857142D02*
X140104819Y-80190476D01*
X140104819Y-80190476D02*
X141104819Y-80619047D01*
X162539580Y-86129166D02*
X162587200Y-86176785D01*
X162587200Y-86176785D02*
X162634819Y-86319642D01*
X162634819Y-86319642D02*
X162634819Y-86414880D01*
X162634819Y-86414880D02*
X162587200Y-86557737D01*
X162587200Y-86557737D02*
X162491961Y-86652975D01*
X162491961Y-86652975D02*
X162396723Y-86700594D01*
X162396723Y-86700594D02*
X162206247Y-86748213D01*
X162206247Y-86748213D02*
X162063390Y-86748213D01*
X162063390Y-86748213D02*
X161872914Y-86700594D01*
X161872914Y-86700594D02*
X161777676Y-86652975D01*
X161777676Y-86652975D02*
X161682438Y-86557737D01*
X161682438Y-86557737D02*
X161634819Y-86414880D01*
X161634819Y-86414880D02*
X161634819Y-86319642D01*
X161634819Y-86319642D02*
X161682438Y-86176785D01*
X161682438Y-86176785D02*
X161730057Y-86129166D01*
X161634819Y-85272023D02*
X161634819Y-85462499D01*
X161634819Y-85462499D02*
X161682438Y-85557737D01*
X161682438Y-85557737D02*
X161730057Y-85605356D01*
X161730057Y-85605356D02*
X161872914Y-85700594D01*
X161872914Y-85700594D02*
X162063390Y-85748213D01*
X162063390Y-85748213D02*
X162444342Y-85748213D01*
X162444342Y-85748213D02*
X162539580Y-85700594D01*
X162539580Y-85700594D02*
X162587200Y-85652975D01*
X162587200Y-85652975D02*
X162634819Y-85557737D01*
X162634819Y-85557737D02*
X162634819Y-85367261D01*
X162634819Y-85367261D02*
X162587200Y-85272023D01*
X162587200Y-85272023D02*
X162539580Y-85224404D01*
X162539580Y-85224404D02*
X162444342Y-85176785D01*
X162444342Y-85176785D02*
X162206247Y-85176785D01*
X162206247Y-85176785D02*
X162111009Y-85224404D01*
X162111009Y-85224404D02*
X162063390Y-85272023D01*
X162063390Y-85272023D02*
X162015771Y-85367261D01*
X162015771Y-85367261D02*
X162015771Y-85557737D01*
X162015771Y-85557737D02*
X162063390Y-85652975D01*
X162063390Y-85652975D02*
X162111009Y-85700594D01*
X162111009Y-85700594D02*
X162206247Y-85748213D01*
X155104819Y-82142857D02*
X154628628Y-82476190D01*
X155104819Y-82714285D02*
X154104819Y-82714285D01*
X154104819Y-82714285D02*
X154104819Y-82333333D01*
X154104819Y-82333333D02*
X154152438Y-82238095D01*
X154152438Y-82238095D02*
X154200057Y-82190476D01*
X154200057Y-82190476D02*
X154295295Y-82142857D01*
X154295295Y-82142857D02*
X154438152Y-82142857D01*
X154438152Y-82142857D02*
X154533390Y-82190476D01*
X154533390Y-82190476D02*
X154581009Y-82238095D01*
X154581009Y-82238095D02*
X154628628Y-82333333D01*
X154628628Y-82333333D02*
X154628628Y-82714285D01*
X155104819Y-81190476D02*
X155104819Y-81761904D01*
X155104819Y-81476190D02*
X154104819Y-81476190D01*
X154104819Y-81476190D02*
X154247676Y-81571428D01*
X154247676Y-81571428D02*
X154342914Y-81666666D01*
X154342914Y-81666666D02*
X154390533Y-81761904D01*
X154104819Y-80333333D02*
X154104819Y-80523809D01*
X154104819Y-80523809D02*
X154152438Y-80619047D01*
X154152438Y-80619047D02*
X154200057Y-80666666D01*
X154200057Y-80666666D02*
X154342914Y-80761904D01*
X154342914Y-80761904D02*
X154533390Y-80809523D01*
X154533390Y-80809523D02*
X154914342Y-80809523D01*
X154914342Y-80809523D02*
X155009580Y-80761904D01*
X155009580Y-80761904D02*
X155057200Y-80714285D01*
X155057200Y-80714285D02*
X155104819Y-80619047D01*
X155104819Y-80619047D02*
X155104819Y-80428571D01*
X155104819Y-80428571D02*
X155057200Y-80333333D01*
X155057200Y-80333333D02*
X155009580Y-80285714D01*
X155009580Y-80285714D02*
X154914342Y-80238095D01*
X154914342Y-80238095D02*
X154676247Y-80238095D01*
X154676247Y-80238095D02*
X154581009Y-80285714D01*
X154581009Y-80285714D02*
X154533390Y-80333333D01*
X154533390Y-80333333D02*
X154485771Y-80428571D01*
X154485771Y-80428571D02*
X154485771Y-80619047D01*
X154485771Y-80619047D02*
X154533390Y-80714285D01*
X154533390Y-80714285D02*
X154581009Y-80761904D01*
X154581009Y-80761904D02*
X154676247Y-80809523D01*
X165126666Y-104704819D02*
X165126666Y-105419104D01*
X165126666Y-105419104D02*
X165079047Y-105561961D01*
X165079047Y-105561961D02*
X164983809Y-105657200D01*
X164983809Y-105657200D02*
X164840952Y-105704819D01*
X164840952Y-105704819D02*
X164745714Y-105704819D01*
X165507619Y-104704819D02*
X166174285Y-104704819D01*
X166174285Y-104704819D02*
X165745714Y-105704819D01*
X118804819Y-94603333D02*
X119519104Y-94603333D01*
X119519104Y-94603333D02*
X119661961Y-94650952D01*
X119661961Y-94650952D02*
X119757200Y-94746190D01*
X119757200Y-94746190D02*
X119804819Y-94889047D01*
X119804819Y-94889047D02*
X119804819Y-94984285D01*
X119804819Y-93603333D02*
X119804819Y-94174761D01*
X119804819Y-93889047D02*
X118804819Y-93889047D01*
X118804819Y-93889047D02*
X118947676Y-93984285D01*
X118947676Y-93984285D02*
X119042914Y-94079523D01*
X119042914Y-94079523D02*
X119090533Y-94174761D01*
X132776666Y-104704819D02*
X132776666Y-105419104D01*
X132776666Y-105419104D02*
X132729047Y-105561961D01*
X132729047Y-105561961D02*
X132633809Y-105657200D01*
X132633809Y-105657200D02*
X132490952Y-105704819D01*
X132490952Y-105704819D02*
X132395714Y-105704819D01*
X133205238Y-104800057D02*
X133252857Y-104752438D01*
X133252857Y-104752438D02*
X133348095Y-104704819D01*
X133348095Y-104704819D02*
X133586190Y-104704819D01*
X133586190Y-104704819D02*
X133681428Y-104752438D01*
X133681428Y-104752438D02*
X133729047Y-104800057D01*
X133729047Y-104800057D02*
X133776666Y-104895295D01*
X133776666Y-104895295D02*
X133776666Y-104990533D01*
X133776666Y-104990533D02*
X133729047Y-105133390D01*
X133729047Y-105133390D02*
X133157619Y-105704819D01*
X133157619Y-105704819D02*
X133776666Y-105704819D01*
X177738095Y-110454819D02*
X177738095Y-109454819D01*
X177738095Y-109931009D02*
X178309523Y-109931009D01*
X178309523Y-110454819D02*
X178309523Y-109454819D01*
X179214285Y-109788152D02*
X179214285Y-110454819D01*
X178976190Y-109407200D02*
X178738095Y-110121485D01*
X178738095Y-110121485D02*
X179357142Y-110121485D01*
X163804819Y-94166666D02*
X163328628Y-94499999D01*
X163804819Y-94738094D02*
X162804819Y-94738094D01*
X162804819Y-94738094D02*
X162804819Y-94357142D01*
X162804819Y-94357142D02*
X162852438Y-94261904D01*
X162852438Y-94261904D02*
X162900057Y-94214285D01*
X162900057Y-94214285D02*
X162995295Y-94166666D01*
X162995295Y-94166666D02*
X163138152Y-94166666D01*
X163138152Y-94166666D02*
X163233390Y-94214285D01*
X163233390Y-94214285D02*
X163281009Y-94261904D01*
X163281009Y-94261904D02*
X163328628Y-94357142D01*
X163328628Y-94357142D02*
X163328628Y-94738094D01*
X162900057Y-93785713D02*
X162852438Y-93738094D01*
X162852438Y-93738094D02*
X162804819Y-93642856D01*
X162804819Y-93642856D02*
X162804819Y-93404761D01*
X162804819Y-93404761D02*
X162852438Y-93309523D01*
X162852438Y-93309523D02*
X162900057Y-93261904D01*
X162900057Y-93261904D02*
X162995295Y-93214285D01*
X162995295Y-93214285D02*
X163090533Y-93214285D01*
X163090533Y-93214285D02*
X163233390Y-93261904D01*
X163233390Y-93261904D02*
X163804819Y-93833332D01*
X163804819Y-93833332D02*
X163804819Y-93214285D01*
X142316666Y-106454819D02*
X142316666Y-107169104D01*
X142316666Y-107169104D02*
X142269047Y-107311961D01*
X142269047Y-107311961D02*
X142173809Y-107407200D01*
X142173809Y-107407200D02*
X142030952Y-107454819D01*
X142030952Y-107454819D02*
X141935714Y-107454819D01*
X143221428Y-106454819D02*
X143030952Y-106454819D01*
X143030952Y-106454819D02*
X142935714Y-106502438D01*
X142935714Y-106502438D02*
X142888095Y-106550057D01*
X142888095Y-106550057D02*
X142792857Y-106692914D01*
X142792857Y-106692914D02*
X142745238Y-106883390D01*
X142745238Y-106883390D02*
X142745238Y-107264342D01*
X142745238Y-107264342D02*
X142792857Y-107359580D01*
X142792857Y-107359580D02*
X142840476Y-107407200D01*
X142840476Y-107407200D02*
X142935714Y-107454819D01*
X142935714Y-107454819D02*
X143126190Y-107454819D01*
X143126190Y-107454819D02*
X143221428Y-107407200D01*
X143221428Y-107407200D02*
X143269047Y-107359580D01*
X143269047Y-107359580D02*
X143316666Y-107264342D01*
X143316666Y-107264342D02*
X143316666Y-107026247D01*
X143316666Y-107026247D02*
X143269047Y-106931009D01*
X143269047Y-106931009D02*
X143221428Y-106883390D01*
X143221428Y-106883390D02*
X143126190Y-106835771D01*
X143126190Y-106835771D02*
X142935714Y-106835771D01*
X142935714Y-106835771D02*
X142840476Y-106883390D01*
X142840476Y-106883390D02*
X142792857Y-106931009D01*
X142792857Y-106931009D02*
X142745238Y-107026247D01*
X160604819Y-82142857D02*
X160128628Y-82476190D01*
X160604819Y-82714285D02*
X159604819Y-82714285D01*
X159604819Y-82714285D02*
X159604819Y-82333333D01*
X159604819Y-82333333D02*
X159652438Y-82238095D01*
X159652438Y-82238095D02*
X159700057Y-82190476D01*
X159700057Y-82190476D02*
X159795295Y-82142857D01*
X159795295Y-82142857D02*
X159938152Y-82142857D01*
X159938152Y-82142857D02*
X160033390Y-82190476D01*
X160033390Y-82190476D02*
X160081009Y-82238095D01*
X160081009Y-82238095D02*
X160128628Y-82333333D01*
X160128628Y-82333333D02*
X160128628Y-82714285D01*
X160604819Y-81190476D02*
X160604819Y-81761904D01*
X160604819Y-81476190D02*
X159604819Y-81476190D01*
X159604819Y-81476190D02*
X159747676Y-81571428D01*
X159747676Y-81571428D02*
X159842914Y-81666666D01*
X159842914Y-81666666D02*
X159890533Y-81761904D01*
X159604819Y-80857142D02*
X159604819Y-80238095D01*
X159604819Y-80238095D02*
X159985771Y-80571428D01*
X159985771Y-80571428D02*
X159985771Y-80428571D01*
X159985771Y-80428571D02*
X160033390Y-80333333D01*
X160033390Y-80333333D02*
X160081009Y-80285714D01*
X160081009Y-80285714D02*
X160176247Y-80238095D01*
X160176247Y-80238095D02*
X160414342Y-80238095D01*
X160414342Y-80238095D02*
X160509580Y-80285714D01*
X160509580Y-80285714D02*
X160557200Y-80333333D01*
X160557200Y-80333333D02*
X160604819Y-80428571D01*
X160604819Y-80428571D02*
X160604819Y-80714285D01*
X160604819Y-80714285D02*
X160557200Y-80809523D01*
X160557200Y-80809523D02*
X160509580Y-80857142D01*
X131530476Y-70204819D02*
X131530476Y-70919104D01*
X131530476Y-70919104D02*
X131482857Y-71061961D01*
X131482857Y-71061961D02*
X131387619Y-71157200D01*
X131387619Y-71157200D02*
X131244762Y-71204819D01*
X131244762Y-71204819D02*
X131149524Y-71204819D01*
X132530476Y-71204819D02*
X131959048Y-71204819D01*
X132244762Y-71204819D02*
X132244762Y-70204819D01*
X132244762Y-70204819D02*
X132149524Y-70347676D01*
X132149524Y-70347676D02*
X132054286Y-70442914D01*
X132054286Y-70442914D02*
X131959048Y-70490533D01*
X133387619Y-70204819D02*
X133197143Y-70204819D01*
X133197143Y-70204819D02*
X133101905Y-70252438D01*
X133101905Y-70252438D02*
X133054286Y-70300057D01*
X133054286Y-70300057D02*
X132959048Y-70442914D01*
X132959048Y-70442914D02*
X132911429Y-70633390D01*
X132911429Y-70633390D02*
X132911429Y-71014342D01*
X132911429Y-71014342D02*
X132959048Y-71109580D01*
X132959048Y-71109580D02*
X133006667Y-71157200D01*
X133006667Y-71157200D02*
X133101905Y-71204819D01*
X133101905Y-71204819D02*
X133292381Y-71204819D01*
X133292381Y-71204819D02*
X133387619Y-71157200D01*
X133387619Y-71157200D02*
X133435238Y-71109580D01*
X133435238Y-71109580D02*
X133482857Y-71014342D01*
X133482857Y-71014342D02*
X133482857Y-70776247D01*
X133482857Y-70776247D02*
X133435238Y-70681009D01*
X133435238Y-70681009D02*
X133387619Y-70633390D01*
X133387619Y-70633390D02*
X133292381Y-70585771D01*
X133292381Y-70585771D02*
X133101905Y-70585771D01*
X133101905Y-70585771D02*
X133006667Y-70633390D01*
X133006667Y-70633390D02*
X132959048Y-70681009D01*
X132959048Y-70681009D02*
X132911429Y-70776247D01*
X138357142Y-84788917D02*
X138023809Y-84312726D01*
X137785714Y-84788917D02*
X137785714Y-83788917D01*
X137785714Y-83788917D02*
X138166666Y-83788917D01*
X138166666Y-83788917D02*
X138261904Y-83836536D01*
X138261904Y-83836536D02*
X138309523Y-83884155D01*
X138309523Y-83884155D02*
X138357142Y-83979393D01*
X138357142Y-83979393D02*
X138357142Y-84122250D01*
X138357142Y-84122250D02*
X138309523Y-84217488D01*
X138309523Y-84217488D02*
X138261904Y-84265107D01*
X138261904Y-84265107D02*
X138166666Y-84312726D01*
X138166666Y-84312726D02*
X137785714Y-84312726D01*
X139309523Y-84788917D02*
X138738095Y-84788917D01*
X139023809Y-84788917D02*
X139023809Y-83788917D01*
X139023809Y-83788917D02*
X138928571Y-83931774D01*
X138928571Y-83931774D02*
X138833333Y-84027012D01*
X138833333Y-84027012D02*
X138738095Y-84074631D01*
X140261904Y-84788917D02*
X139690476Y-84788917D01*
X139976190Y-84788917D02*
X139976190Y-83788917D01*
X139976190Y-83788917D02*
X139880952Y-83931774D01*
X139880952Y-83931774D02*
X139785714Y-84027012D01*
X139785714Y-84027012D02*
X139690476Y-84074631D01*
X177738095Y-66454819D02*
X177738095Y-65454819D01*
X177738095Y-65931009D02*
X178309523Y-65931009D01*
X178309523Y-66454819D02*
X178309523Y-65454819D01*
X179309523Y-66454819D02*
X178738095Y-66454819D01*
X179023809Y-66454819D02*
X179023809Y-65454819D01*
X179023809Y-65454819D02*
X178928571Y-65597676D01*
X178928571Y-65597676D02*
X178833333Y-65692914D01*
X178833333Y-65692914D02*
X178738095Y-65740533D01*
X160304819Y-94166666D02*
X159828628Y-94499999D01*
X160304819Y-94738094D02*
X159304819Y-94738094D01*
X159304819Y-94738094D02*
X159304819Y-94357142D01*
X159304819Y-94357142D02*
X159352438Y-94261904D01*
X159352438Y-94261904D02*
X159400057Y-94214285D01*
X159400057Y-94214285D02*
X159495295Y-94166666D01*
X159495295Y-94166666D02*
X159638152Y-94166666D01*
X159638152Y-94166666D02*
X159733390Y-94214285D01*
X159733390Y-94214285D02*
X159781009Y-94261904D01*
X159781009Y-94261904D02*
X159828628Y-94357142D01*
X159828628Y-94357142D02*
X159828628Y-94738094D01*
X159304819Y-93833332D02*
X159304819Y-93166666D01*
X159304819Y-93166666D02*
X160304819Y-93595237D01*
X113738095Y-110454819D02*
X113738095Y-109454819D01*
X113738095Y-109931009D02*
X114309523Y-109931009D01*
X114309523Y-110454819D02*
X114309523Y-109454819D01*
X114690476Y-109454819D02*
X115309523Y-109454819D01*
X115309523Y-109454819D02*
X114976190Y-109835771D01*
X114976190Y-109835771D02*
X115119047Y-109835771D01*
X115119047Y-109835771D02*
X115214285Y-109883390D01*
X115214285Y-109883390D02*
X115261904Y-109931009D01*
X115261904Y-109931009D02*
X115309523Y-110026247D01*
X115309523Y-110026247D02*
X115309523Y-110264342D01*
X115309523Y-110264342D02*
X115261904Y-110359580D01*
X115261904Y-110359580D02*
X115214285Y-110407200D01*
X115214285Y-110407200D02*
X115119047Y-110454819D01*
X115119047Y-110454819D02*
X114833333Y-110454819D01*
X114833333Y-110454819D02*
X114738095Y-110407200D01*
X114738095Y-110407200D02*
X114690476Y-110359580D01*
X121190476Y-76444819D02*
X121190476Y-77159104D01*
X121190476Y-77159104D02*
X121142857Y-77301961D01*
X121142857Y-77301961D02*
X121047619Y-77397200D01*
X121047619Y-77397200D02*
X120904762Y-77444819D01*
X120904762Y-77444819D02*
X120809524Y-77444819D01*
X121619048Y-76540057D02*
X121666667Y-76492438D01*
X121666667Y-76492438D02*
X121761905Y-76444819D01*
X121761905Y-76444819D02*
X122000000Y-76444819D01*
X122000000Y-76444819D02*
X122095238Y-76492438D01*
X122095238Y-76492438D02*
X122142857Y-76540057D01*
X122142857Y-76540057D02*
X122190476Y-76635295D01*
X122190476Y-76635295D02*
X122190476Y-76730533D01*
X122190476Y-76730533D02*
X122142857Y-76873390D01*
X122142857Y-76873390D02*
X121571429Y-77444819D01*
X121571429Y-77444819D02*
X122190476Y-77444819D01*
X122809524Y-76444819D02*
X122904762Y-76444819D01*
X122904762Y-76444819D02*
X123000000Y-76492438D01*
X123000000Y-76492438D02*
X123047619Y-76540057D01*
X123047619Y-76540057D02*
X123095238Y-76635295D01*
X123095238Y-76635295D02*
X123142857Y-76825771D01*
X123142857Y-76825771D02*
X123142857Y-77063866D01*
X123142857Y-77063866D02*
X123095238Y-77254342D01*
X123095238Y-77254342D02*
X123047619Y-77349580D01*
X123047619Y-77349580D02*
X123000000Y-77397200D01*
X123000000Y-77397200D02*
X122904762Y-77444819D01*
X122904762Y-77444819D02*
X122809524Y-77444819D01*
X122809524Y-77444819D02*
X122714286Y-77397200D01*
X122714286Y-77397200D02*
X122666667Y-77349580D01*
X122666667Y-77349580D02*
X122619048Y-77254342D01*
X122619048Y-77254342D02*
X122571429Y-77063866D01*
X122571429Y-77063866D02*
X122571429Y-76825771D01*
X122571429Y-76825771D02*
X122619048Y-76635295D01*
X122619048Y-76635295D02*
X122666667Y-76540057D01*
X122666667Y-76540057D02*
X122714286Y-76492438D01*
X122714286Y-76492438D02*
X122809524Y-76444819D01*
X111861905Y-104454819D02*
X111861905Y-103454819D01*
X111861905Y-103454819D02*
X112100000Y-103454819D01*
X112100000Y-103454819D02*
X112242857Y-103502438D01*
X112242857Y-103502438D02*
X112338095Y-103597676D01*
X112338095Y-103597676D02*
X112385714Y-103692914D01*
X112385714Y-103692914D02*
X112433333Y-103883390D01*
X112433333Y-103883390D02*
X112433333Y-104026247D01*
X112433333Y-104026247D02*
X112385714Y-104216723D01*
X112385714Y-104216723D02*
X112338095Y-104311961D01*
X112338095Y-104311961D02*
X112242857Y-104407200D01*
X112242857Y-104407200D02*
X112100000Y-104454819D01*
X112100000Y-104454819D02*
X111861905Y-104454819D01*
X113385714Y-104454819D02*
X112814286Y-104454819D01*
X113100000Y-104454819D02*
X113100000Y-103454819D01*
X113100000Y-103454819D02*
X113004762Y-103597676D01*
X113004762Y-103597676D02*
X112909524Y-103692914D01*
X112909524Y-103692914D02*
X112814286Y-103740533D01*
X151816666Y-106454819D02*
X151816666Y-107169104D01*
X151816666Y-107169104D02*
X151769047Y-107311961D01*
X151769047Y-107311961D02*
X151673809Y-107407200D01*
X151673809Y-107407200D02*
X151530952Y-107454819D01*
X151530952Y-107454819D02*
X151435714Y-107454819D01*
X152769047Y-106454819D02*
X152292857Y-106454819D01*
X152292857Y-106454819D02*
X152245238Y-106931009D01*
X152245238Y-106931009D02*
X152292857Y-106883390D01*
X152292857Y-106883390D02*
X152388095Y-106835771D01*
X152388095Y-106835771D02*
X152626190Y-106835771D01*
X152626190Y-106835771D02*
X152721428Y-106883390D01*
X152721428Y-106883390D02*
X152769047Y-106931009D01*
X152769047Y-106931009D02*
X152816666Y-107026247D01*
X152816666Y-107026247D02*
X152816666Y-107264342D01*
X152816666Y-107264342D02*
X152769047Y-107359580D01*
X152769047Y-107359580D02*
X152721428Y-107407200D01*
X152721428Y-107407200D02*
X152626190Y-107454819D01*
X152626190Y-107454819D02*
X152388095Y-107454819D01*
X152388095Y-107454819D02*
X152292857Y-107407200D01*
X152292857Y-107407200D02*
X152245238Y-107359580D01*
X143833333Y-84804819D02*
X143500000Y-84328628D01*
X143261905Y-84804819D02*
X143261905Y-83804819D01*
X143261905Y-83804819D02*
X143642857Y-83804819D01*
X143642857Y-83804819D02*
X143738095Y-83852438D01*
X143738095Y-83852438D02*
X143785714Y-83900057D01*
X143785714Y-83900057D02*
X143833333Y-83995295D01*
X143833333Y-83995295D02*
X143833333Y-84138152D01*
X143833333Y-84138152D02*
X143785714Y-84233390D01*
X143785714Y-84233390D02*
X143738095Y-84281009D01*
X143738095Y-84281009D02*
X143642857Y-84328628D01*
X143642857Y-84328628D02*
X143261905Y-84328628D01*
X144309524Y-84804819D02*
X144500000Y-84804819D01*
X144500000Y-84804819D02*
X144595238Y-84757200D01*
X144595238Y-84757200D02*
X144642857Y-84709580D01*
X144642857Y-84709580D02*
X144738095Y-84566723D01*
X144738095Y-84566723D02*
X144785714Y-84376247D01*
X144785714Y-84376247D02*
X144785714Y-83995295D01*
X144785714Y-83995295D02*
X144738095Y-83900057D01*
X144738095Y-83900057D02*
X144690476Y-83852438D01*
X144690476Y-83852438D02*
X144595238Y-83804819D01*
X144595238Y-83804819D02*
X144404762Y-83804819D01*
X144404762Y-83804819D02*
X144309524Y-83852438D01*
X144309524Y-83852438D02*
X144261905Y-83900057D01*
X144261905Y-83900057D02*
X144214286Y-83995295D01*
X144214286Y-83995295D02*
X144214286Y-84233390D01*
X144214286Y-84233390D02*
X144261905Y-84328628D01*
X144261905Y-84328628D02*
X144309524Y-84376247D01*
X144309524Y-84376247D02*
X144404762Y-84423866D01*
X144404762Y-84423866D02*
X144595238Y-84423866D01*
X144595238Y-84423866D02*
X144690476Y-84376247D01*
X144690476Y-84376247D02*
X144738095Y-84328628D01*
X144738095Y-84328628D02*
X144785714Y-84233390D01*
X168539580Y-81629166D02*
X168587200Y-81676785D01*
X168587200Y-81676785D02*
X168634819Y-81819642D01*
X168634819Y-81819642D02*
X168634819Y-81914880D01*
X168634819Y-81914880D02*
X168587200Y-82057737D01*
X168587200Y-82057737D02*
X168491961Y-82152975D01*
X168491961Y-82152975D02*
X168396723Y-82200594D01*
X168396723Y-82200594D02*
X168206247Y-82248213D01*
X168206247Y-82248213D02*
X168063390Y-82248213D01*
X168063390Y-82248213D02*
X167872914Y-82200594D01*
X167872914Y-82200594D02*
X167777676Y-82152975D01*
X167777676Y-82152975D02*
X167682438Y-82057737D01*
X167682438Y-82057737D02*
X167634819Y-81914880D01*
X167634819Y-81914880D02*
X167634819Y-81819642D01*
X167634819Y-81819642D02*
X167682438Y-81676785D01*
X167682438Y-81676785D02*
X167730057Y-81629166D01*
X167968152Y-80772023D02*
X168634819Y-80772023D01*
X167587200Y-81010118D02*
X168301485Y-81248213D01*
X168301485Y-81248213D02*
X168301485Y-80629166D01*
X165610476Y-70204819D02*
X165610476Y-70919104D01*
X165610476Y-70919104D02*
X165562857Y-71061961D01*
X165562857Y-71061961D02*
X165467619Y-71157200D01*
X165467619Y-71157200D02*
X165324762Y-71204819D01*
X165324762Y-71204819D02*
X165229524Y-71204819D01*
X166610476Y-71204819D02*
X166039048Y-71204819D01*
X166324762Y-71204819D02*
X166324762Y-70204819D01*
X166324762Y-70204819D02*
X166229524Y-70347676D01*
X166229524Y-70347676D02*
X166134286Y-70442914D01*
X166134286Y-70442914D02*
X166039048Y-70490533D01*
X167181905Y-70633390D02*
X167086667Y-70585771D01*
X167086667Y-70585771D02*
X167039048Y-70538152D01*
X167039048Y-70538152D02*
X166991429Y-70442914D01*
X166991429Y-70442914D02*
X166991429Y-70395295D01*
X166991429Y-70395295D02*
X167039048Y-70300057D01*
X167039048Y-70300057D02*
X167086667Y-70252438D01*
X167086667Y-70252438D02*
X167181905Y-70204819D01*
X167181905Y-70204819D02*
X167372381Y-70204819D01*
X167372381Y-70204819D02*
X167467619Y-70252438D01*
X167467619Y-70252438D02*
X167515238Y-70300057D01*
X167515238Y-70300057D02*
X167562857Y-70395295D01*
X167562857Y-70395295D02*
X167562857Y-70442914D01*
X167562857Y-70442914D02*
X167515238Y-70538152D01*
X167515238Y-70538152D02*
X167467619Y-70585771D01*
X167467619Y-70585771D02*
X167372381Y-70633390D01*
X167372381Y-70633390D02*
X167181905Y-70633390D01*
X167181905Y-70633390D02*
X167086667Y-70681009D01*
X167086667Y-70681009D02*
X167039048Y-70728628D01*
X167039048Y-70728628D02*
X166991429Y-70823866D01*
X166991429Y-70823866D02*
X166991429Y-71014342D01*
X166991429Y-71014342D02*
X167039048Y-71109580D01*
X167039048Y-71109580D02*
X167086667Y-71157200D01*
X167086667Y-71157200D02*
X167181905Y-71204819D01*
X167181905Y-71204819D02*
X167372381Y-71204819D01*
X167372381Y-71204819D02*
X167467619Y-71157200D01*
X167467619Y-71157200D02*
X167515238Y-71109580D01*
X167515238Y-71109580D02*
X167562857Y-71014342D01*
X167562857Y-71014342D02*
X167562857Y-70823866D01*
X167562857Y-70823866D02*
X167515238Y-70728628D01*
X167515238Y-70728628D02*
X167467619Y-70681009D01*
X167467619Y-70681009D02*
X167372381Y-70633390D01*
X127833333Y-93359580D02*
X127785714Y-93407200D01*
X127785714Y-93407200D02*
X127642857Y-93454819D01*
X127642857Y-93454819D02*
X127547619Y-93454819D01*
X127547619Y-93454819D02*
X127404762Y-93407200D01*
X127404762Y-93407200D02*
X127309524Y-93311961D01*
X127309524Y-93311961D02*
X127261905Y-93216723D01*
X127261905Y-93216723D02*
X127214286Y-93026247D01*
X127214286Y-93026247D02*
X127214286Y-92883390D01*
X127214286Y-92883390D02*
X127261905Y-92692914D01*
X127261905Y-92692914D02*
X127309524Y-92597676D01*
X127309524Y-92597676D02*
X127404762Y-92502438D01*
X127404762Y-92502438D02*
X127547619Y-92454819D01*
X127547619Y-92454819D02*
X127642857Y-92454819D01*
X127642857Y-92454819D02*
X127785714Y-92502438D01*
X127785714Y-92502438D02*
X127833333Y-92550057D01*
X128214286Y-92550057D02*
X128261905Y-92502438D01*
X128261905Y-92502438D02*
X128357143Y-92454819D01*
X128357143Y-92454819D02*
X128595238Y-92454819D01*
X128595238Y-92454819D02*
X128690476Y-92502438D01*
X128690476Y-92502438D02*
X128738095Y-92550057D01*
X128738095Y-92550057D02*
X128785714Y-92645295D01*
X128785714Y-92645295D02*
X128785714Y-92740533D01*
X128785714Y-92740533D02*
X128738095Y-92883390D01*
X128738095Y-92883390D02*
X128166667Y-93454819D01*
X128166667Y-93454819D02*
X128785714Y-93454819D01*
X164539580Y-81704166D02*
X164587200Y-81751785D01*
X164587200Y-81751785D02*
X164634819Y-81894642D01*
X164634819Y-81894642D02*
X164634819Y-81989880D01*
X164634819Y-81989880D02*
X164587200Y-82132737D01*
X164587200Y-82132737D02*
X164491961Y-82227975D01*
X164491961Y-82227975D02*
X164396723Y-82275594D01*
X164396723Y-82275594D02*
X164206247Y-82323213D01*
X164206247Y-82323213D02*
X164063390Y-82323213D01*
X164063390Y-82323213D02*
X163872914Y-82275594D01*
X163872914Y-82275594D02*
X163777676Y-82227975D01*
X163777676Y-82227975D02*
X163682438Y-82132737D01*
X163682438Y-82132737D02*
X163634819Y-81989880D01*
X163634819Y-81989880D02*
X163634819Y-81894642D01*
X163634819Y-81894642D02*
X163682438Y-81751785D01*
X163682438Y-81751785D02*
X163730057Y-81704166D01*
X163634819Y-80799404D02*
X163634819Y-81275594D01*
X163634819Y-81275594D02*
X164111009Y-81323213D01*
X164111009Y-81323213D02*
X164063390Y-81275594D01*
X164063390Y-81275594D02*
X164015771Y-81180356D01*
X164015771Y-81180356D02*
X164015771Y-80942261D01*
X164015771Y-80942261D02*
X164063390Y-80847023D01*
X164063390Y-80847023D02*
X164111009Y-80799404D01*
X164111009Y-80799404D02*
X164206247Y-80751785D01*
X164206247Y-80751785D02*
X164444342Y-80751785D01*
X164444342Y-80751785D02*
X164539580Y-80799404D01*
X164539580Y-80799404D02*
X164587200Y-80847023D01*
X164587200Y-80847023D02*
X164634819Y-80942261D01*
X164634819Y-80942261D02*
X164634819Y-81180356D01*
X164634819Y-81180356D02*
X164587200Y-81275594D01*
X164587200Y-81275594D02*
X164539580Y-81323213D01*
X144604819Y-82142857D02*
X144128628Y-82476190D01*
X144604819Y-82714285D02*
X143604819Y-82714285D01*
X143604819Y-82714285D02*
X143604819Y-82333333D01*
X143604819Y-82333333D02*
X143652438Y-82238095D01*
X143652438Y-82238095D02*
X143700057Y-82190476D01*
X143700057Y-82190476D02*
X143795295Y-82142857D01*
X143795295Y-82142857D02*
X143938152Y-82142857D01*
X143938152Y-82142857D02*
X144033390Y-82190476D01*
X144033390Y-82190476D02*
X144081009Y-82238095D01*
X144081009Y-82238095D02*
X144128628Y-82333333D01*
X144128628Y-82333333D02*
X144128628Y-82714285D01*
X144604819Y-81190476D02*
X144604819Y-81761904D01*
X144604819Y-81476190D02*
X143604819Y-81476190D01*
X143604819Y-81476190D02*
X143747676Y-81571428D01*
X143747676Y-81571428D02*
X143842914Y-81666666D01*
X143842914Y-81666666D02*
X143890533Y-81761904D01*
X143938152Y-80333333D02*
X144604819Y-80333333D01*
X143557200Y-80571428D02*
X144271485Y-80809523D01*
X144271485Y-80809523D02*
X144271485Y-80190476D01*
X140804819Y-96166666D02*
X140328628Y-96499999D01*
X140804819Y-96738094D02*
X139804819Y-96738094D01*
X139804819Y-96738094D02*
X139804819Y-96357142D01*
X139804819Y-96357142D02*
X139852438Y-96261904D01*
X139852438Y-96261904D02*
X139900057Y-96214285D01*
X139900057Y-96214285D02*
X139995295Y-96166666D01*
X139995295Y-96166666D02*
X140138152Y-96166666D01*
X140138152Y-96166666D02*
X140233390Y-96214285D01*
X140233390Y-96214285D02*
X140281009Y-96261904D01*
X140281009Y-96261904D02*
X140328628Y-96357142D01*
X140328628Y-96357142D02*
X140328628Y-96738094D01*
X140804819Y-95214285D02*
X140804819Y-95785713D01*
X140804819Y-95499999D02*
X139804819Y-95499999D01*
X139804819Y-95499999D02*
X139947676Y-95595237D01*
X139947676Y-95595237D02*
X140042914Y-95690475D01*
X140042914Y-95690475D02*
X140090533Y-95785713D01*
X113738095Y-66454819D02*
X113738095Y-65454819D01*
X113738095Y-65931009D02*
X114309523Y-65931009D01*
X114309523Y-66454819D02*
X114309523Y-65454819D01*
X114738095Y-65550057D02*
X114785714Y-65502438D01*
X114785714Y-65502438D02*
X114880952Y-65454819D01*
X114880952Y-65454819D02*
X115119047Y-65454819D01*
X115119047Y-65454819D02*
X115214285Y-65502438D01*
X115214285Y-65502438D02*
X115261904Y-65550057D01*
X115261904Y-65550057D02*
X115309523Y-65645295D01*
X115309523Y-65645295D02*
X115309523Y-65740533D01*
X115309523Y-65740533D02*
X115261904Y-65883390D01*
X115261904Y-65883390D02*
X114690476Y-66454819D01*
X114690476Y-66454819D02*
X115309523Y-66454819D01*
X137604819Y-82142857D02*
X137128628Y-82476190D01*
X137604819Y-82714285D02*
X136604819Y-82714285D01*
X136604819Y-82714285D02*
X136604819Y-82333333D01*
X136604819Y-82333333D02*
X136652438Y-82238095D01*
X136652438Y-82238095D02*
X136700057Y-82190476D01*
X136700057Y-82190476D02*
X136795295Y-82142857D01*
X136795295Y-82142857D02*
X136938152Y-82142857D01*
X136938152Y-82142857D02*
X137033390Y-82190476D01*
X137033390Y-82190476D02*
X137081009Y-82238095D01*
X137081009Y-82238095D02*
X137128628Y-82333333D01*
X137128628Y-82333333D02*
X137128628Y-82714285D01*
X137604819Y-81190476D02*
X137604819Y-81761904D01*
X137604819Y-81476190D02*
X136604819Y-81476190D01*
X136604819Y-81476190D02*
X136747676Y-81571428D01*
X136747676Y-81571428D02*
X136842914Y-81666666D01*
X136842914Y-81666666D02*
X136890533Y-81761904D01*
X136604819Y-80285714D02*
X136604819Y-80761904D01*
X136604819Y-80761904D02*
X137081009Y-80809523D01*
X137081009Y-80809523D02*
X137033390Y-80761904D01*
X137033390Y-80761904D02*
X136985771Y-80666666D01*
X136985771Y-80666666D02*
X136985771Y-80428571D01*
X136985771Y-80428571D02*
X137033390Y-80333333D01*
X137033390Y-80333333D02*
X137081009Y-80285714D01*
X137081009Y-80285714D02*
X137176247Y-80238095D01*
X137176247Y-80238095D02*
X137414342Y-80238095D01*
X137414342Y-80238095D02*
X137509580Y-80285714D01*
X137509580Y-80285714D02*
X137557200Y-80333333D01*
X137557200Y-80333333D02*
X137604819Y-80428571D01*
X137604819Y-80428571D02*
X137604819Y-80666666D01*
X137604819Y-80666666D02*
X137557200Y-80761904D01*
X137557200Y-80761904D02*
X137509580Y-80809523D01*
X173204819Y-79579523D02*
X173919104Y-79579523D01*
X173919104Y-79579523D02*
X174061961Y-79627142D01*
X174061961Y-79627142D02*
X174157200Y-79722380D01*
X174157200Y-79722380D02*
X174204819Y-79865237D01*
X174204819Y-79865237D02*
X174204819Y-79960475D01*
X174204819Y-78579523D02*
X174204819Y-79150951D01*
X174204819Y-78865237D02*
X173204819Y-78865237D01*
X173204819Y-78865237D02*
X173347676Y-78960475D01*
X173347676Y-78960475D02*
X173442914Y-79055713D01*
X173442914Y-79055713D02*
X173490533Y-79150951D01*
X173204819Y-78246189D02*
X173204819Y-77579523D01*
X173204819Y-77579523D02*
X174204819Y-78008094D01*
X156804819Y-94166666D02*
X156328628Y-94499999D01*
X156804819Y-94738094D02*
X155804819Y-94738094D01*
X155804819Y-94738094D02*
X155804819Y-94357142D01*
X155804819Y-94357142D02*
X155852438Y-94261904D01*
X155852438Y-94261904D02*
X155900057Y-94214285D01*
X155900057Y-94214285D02*
X155995295Y-94166666D01*
X155995295Y-94166666D02*
X156138152Y-94166666D01*
X156138152Y-94166666D02*
X156233390Y-94214285D01*
X156233390Y-94214285D02*
X156281009Y-94261904D01*
X156281009Y-94261904D02*
X156328628Y-94357142D01*
X156328628Y-94357142D02*
X156328628Y-94738094D01*
X155804819Y-93309523D02*
X155804819Y-93499999D01*
X155804819Y-93499999D02*
X155852438Y-93595237D01*
X155852438Y-93595237D02*
X155900057Y-93642856D01*
X155900057Y-93642856D02*
X156042914Y-93738094D01*
X156042914Y-93738094D02*
X156233390Y-93785713D01*
X156233390Y-93785713D02*
X156614342Y-93785713D01*
X156614342Y-93785713D02*
X156709580Y-93738094D01*
X156709580Y-93738094D02*
X156757200Y-93690475D01*
X156757200Y-93690475D02*
X156804819Y-93595237D01*
X156804819Y-93595237D02*
X156804819Y-93404761D01*
X156804819Y-93404761D02*
X156757200Y-93309523D01*
X156757200Y-93309523D02*
X156709580Y-93261904D01*
X156709580Y-93261904D02*
X156614342Y-93214285D01*
X156614342Y-93214285D02*
X156376247Y-93214285D01*
X156376247Y-93214285D02*
X156281009Y-93261904D01*
X156281009Y-93261904D02*
X156233390Y-93309523D01*
X156233390Y-93309523D02*
X156185771Y-93404761D01*
X156185771Y-93404761D02*
X156185771Y-93595237D01*
X156185771Y-93595237D02*
X156233390Y-93690475D01*
X156233390Y-93690475D02*
X156281009Y-93738094D01*
X156281009Y-93738094D02*
X156376247Y-93785713D01*
X118833333Y-106859580D02*
X118785714Y-106907200D01*
X118785714Y-106907200D02*
X118642857Y-106954819D01*
X118642857Y-106954819D02*
X118547619Y-106954819D01*
X118547619Y-106954819D02*
X118404762Y-106907200D01*
X118404762Y-106907200D02*
X118309524Y-106811961D01*
X118309524Y-106811961D02*
X118261905Y-106716723D01*
X118261905Y-106716723D02*
X118214286Y-106526247D01*
X118214286Y-106526247D02*
X118214286Y-106383390D01*
X118214286Y-106383390D02*
X118261905Y-106192914D01*
X118261905Y-106192914D02*
X118309524Y-106097676D01*
X118309524Y-106097676D02*
X118404762Y-106002438D01*
X118404762Y-106002438D02*
X118547619Y-105954819D01*
X118547619Y-105954819D02*
X118642857Y-105954819D01*
X118642857Y-105954819D02*
X118785714Y-106002438D01*
X118785714Y-106002438D02*
X118833333Y-106050057D01*
X119785714Y-106954819D02*
X119214286Y-106954819D01*
X119500000Y-106954819D02*
X119500000Y-105954819D01*
X119500000Y-105954819D02*
X119404762Y-106097676D01*
X119404762Y-106097676D02*
X119309524Y-106192914D01*
X119309524Y-106192914D02*
X119214286Y-106240533D01*
X149804819Y-94166666D02*
X149328628Y-94499999D01*
X149804819Y-94738094D02*
X148804819Y-94738094D01*
X148804819Y-94738094D02*
X148804819Y-94357142D01*
X148804819Y-94357142D02*
X148852438Y-94261904D01*
X148852438Y-94261904D02*
X148900057Y-94214285D01*
X148900057Y-94214285D02*
X148995295Y-94166666D01*
X148995295Y-94166666D02*
X149138152Y-94166666D01*
X149138152Y-94166666D02*
X149233390Y-94214285D01*
X149233390Y-94214285D02*
X149281009Y-94261904D01*
X149281009Y-94261904D02*
X149328628Y-94357142D01*
X149328628Y-94357142D02*
X149328628Y-94738094D01*
X149138152Y-93309523D02*
X149804819Y-93309523D01*
X148757200Y-93547618D02*
X149471485Y-93785713D01*
X149471485Y-93785713D02*
X149471485Y-93166666D01*
X148104819Y-82142857D02*
X147628628Y-82476190D01*
X148104819Y-82714285D02*
X147104819Y-82714285D01*
X147104819Y-82714285D02*
X147104819Y-82333333D01*
X147104819Y-82333333D02*
X147152438Y-82238095D01*
X147152438Y-82238095D02*
X147200057Y-82190476D01*
X147200057Y-82190476D02*
X147295295Y-82142857D01*
X147295295Y-82142857D02*
X147438152Y-82142857D01*
X147438152Y-82142857D02*
X147533390Y-82190476D01*
X147533390Y-82190476D02*
X147581009Y-82238095D01*
X147581009Y-82238095D02*
X147628628Y-82333333D01*
X147628628Y-82333333D02*
X147628628Y-82714285D01*
X148104819Y-81190476D02*
X148104819Y-81761904D01*
X148104819Y-81476190D02*
X147104819Y-81476190D01*
X147104819Y-81476190D02*
X147247676Y-81571428D01*
X147247676Y-81571428D02*
X147342914Y-81666666D01*
X147342914Y-81666666D02*
X147390533Y-81761904D01*
X147200057Y-80809523D02*
X147152438Y-80761904D01*
X147152438Y-80761904D02*
X147104819Y-80666666D01*
X147104819Y-80666666D02*
X147104819Y-80428571D01*
X147104819Y-80428571D02*
X147152438Y-80333333D01*
X147152438Y-80333333D02*
X147200057Y-80285714D01*
X147200057Y-80285714D02*
X147295295Y-80238095D01*
X147295295Y-80238095D02*
X147390533Y-80238095D01*
X147390533Y-80238095D02*
X147533390Y-80285714D01*
X147533390Y-80285714D02*
X148104819Y-80857142D01*
X148104819Y-80857142D02*
X148104819Y-80238095D01*
X151604819Y-81666666D02*
X151128628Y-81999999D01*
X151604819Y-82238094D02*
X150604819Y-82238094D01*
X150604819Y-82238094D02*
X150604819Y-81857142D01*
X150604819Y-81857142D02*
X150652438Y-81761904D01*
X150652438Y-81761904D02*
X150700057Y-81714285D01*
X150700057Y-81714285D02*
X150795295Y-81666666D01*
X150795295Y-81666666D02*
X150938152Y-81666666D01*
X150938152Y-81666666D02*
X151033390Y-81714285D01*
X151033390Y-81714285D02*
X151081009Y-81761904D01*
X151081009Y-81761904D02*
X151128628Y-81857142D01*
X151128628Y-81857142D02*
X151128628Y-82238094D01*
X151033390Y-81095237D02*
X150985771Y-81190475D01*
X150985771Y-81190475D02*
X150938152Y-81238094D01*
X150938152Y-81238094D02*
X150842914Y-81285713D01*
X150842914Y-81285713D02*
X150795295Y-81285713D01*
X150795295Y-81285713D02*
X150700057Y-81238094D01*
X150700057Y-81238094D02*
X150652438Y-81190475D01*
X150652438Y-81190475D02*
X150604819Y-81095237D01*
X150604819Y-81095237D02*
X150604819Y-80904761D01*
X150604819Y-80904761D02*
X150652438Y-80809523D01*
X150652438Y-80809523D02*
X150700057Y-80761904D01*
X150700057Y-80761904D02*
X150795295Y-80714285D01*
X150795295Y-80714285D02*
X150842914Y-80714285D01*
X150842914Y-80714285D02*
X150938152Y-80761904D01*
X150938152Y-80761904D02*
X150985771Y-80809523D01*
X150985771Y-80809523D02*
X151033390Y-80904761D01*
X151033390Y-80904761D02*
X151033390Y-81095237D01*
X151033390Y-81095237D02*
X151081009Y-81190475D01*
X151081009Y-81190475D02*
X151128628Y-81238094D01*
X151128628Y-81238094D02*
X151223866Y-81285713D01*
X151223866Y-81285713D02*
X151414342Y-81285713D01*
X151414342Y-81285713D02*
X151509580Y-81238094D01*
X151509580Y-81238094D02*
X151557200Y-81190475D01*
X151557200Y-81190475D02*
X151604819Y-81095237D01*
X151604819Y-81095237D02*
X151604819Y-80904761D01*
X151604819Y-80904761D02*
X151557200Y-80809523D01*
X151557200Y-80809523D02*
X151509580Y-80761904D01*
X151509580Y-80761904D02*
X151414342Y-80714285D01*
X151414342Y-80714285D02*
X151223866Y-80714285D01*
X151223866Y-80714285D02*
X151128628Y-80761904D01*
X151128628Y-80761904D02*
X151081009Y-80809523D01*
X151081009Y-80809523D02*
X151033390Y-80904761D01*
X118844819Y-76079523D02*
X119559104Y-76079523D01*
X119559104Y-76079523D02*
X119701961Y-76127142D01*
X119701961Y-76127142D02*
X119797200Y-76222380D01*
X119797200Y-76222380D02*
X119844819Y-76365237D01*
X119844819Y-76365237D02*
X119844819Y-76460475D01*
X119844819Y-75079523D02*
X119844819Y-75650951D01*
X119844819Y-75365237D02*
X118844819Y-75365237D01*
X118844819Y-75365237D02*
X118987676Y-75460475D01*
X118987676Y-75460475D02*
X119082914Y-75555713D01*
X119082914Y-75555713D02*
X119130533Y-75650951D01*
X119178152Y-74222380D02*
X119844819Y-74222380D01*
X118797200Y-74460475D02*
X119511485Y-74698570D01*
X119511485Y-74698570D02*
X119511485Y-74079523D01*
X123124819Y-89276904D02*
X123934342Y-89276904D01*
X123934342Y-89276904D02*
X124029580Y-89229285D01*
X124029580Y-89229285D02*
X124077200Y-89181666D01*
X124077200Y-89181666D02*
X124124819Y-89086428D01*
X124124819Y-89086428D02*
X124124819Y-88895952D01*
X124124819Y-88895952D02*
X124077200Y-88800714D01*
X124077200Y-88800714D02*
X124029580Y-88753095D01*
X124029580Y-88753095D02*
X123934342Y-88705476D01*
X123934342Y-88705476D02*
X123124819Y-88705476D01*
X124124819Y-87705476D02*
X124124819Y-88276904D01*
X124124819Y-87991190D02*
X123124819Y-87991190D01*
X123124819Y-87991190D02*
X123267676Y-88086428D01*
X123267676Y-88086428D02*
X123362914Y-88181666D01*
X123362914Y-88181666D02*
X123410533Y-88276904D01*
D11*
%TO.C,J15*%
X157410000Y-69960000D02*
X155000000Y-69960000D01*
X157410000Y-67550000D02*
X157410000Y-69960000D01*
X157110000Y-69660000D02*
X157110000Y-67130000D01*
X157110000Y-67130000D02*
X156980000Y-67130000D01*
X157110000Y-65320000D02*
X157110000Y-64340000D01*
X157110000Y-64340000D02*
X153340000Y-64340000D01*
X156980000Y-67130000D02*
X156980000Y-65320000D01*
X156980000Y-65320000D02*
X157110000Y-65320000D01*
X153340000Y-64340000D02*
X153340000Y-62840000D01*
X153340000Y-62840000D02*
X145500000Y-62840000D01*
X145500000Y-64340000D02*
X141730000Y-64340000D01*
X145500000Y-62840000D02*
X145500000Y-64340000D01*
X141860000Y-67130000D02*
X141730000Y-67130000D01*
X141860000Y-65320000D02*
X141860000Y-67130000D01*
X141730000Y-69660000D02*
X157110000Y-69660000D01*
X141730000Y-67130000D02*
X141730000Y-69660000D01*
X141730000Y-65320000D02*
X141860000Y-65320000D01*
X141730000Y-64340000D02*
X141730000Y-65320000D01*
%TO.C,J12*%
X146830000Y-74210000D02*
X146830000Y-74330000D01*
X146830000Y-71670000D02*
X146830000Y-73000000D01*
X145500000Y-71670000D02*
X146830000Y-71670000D01*
X144170000Y-74330000D02*
X146830000Y-74330000D01*
X144170000Y-74210000D02*
X144170000Y-74330000D01*
%TO.C,J19*%
X118560000Y-80630000D02*
X118560000Y-83040000D01*
X116150000Y-80630000D02*
X118560000Y-80630000D01*
X118260000Y-80930000D02*
X115730000Y-80930000D01*
X115730000Y-80930000D02*
X115730000Y-81060000D01*
X113920000Y-80930000D02*
X112940000Y-80930000D01*
X112940000Y-80930000D02*
X112940000Y-81190000D01*
X115730000Y-81060000D02*
X113920000Y-81060000D01*
X113920000Y-81060000D02*
X113920000Y-80930000D01*
X112940000Y-81190000D02*
X111440000Y-81190000D01*
X111440000Y-81190000D02*
X111440000Y-88270000D01*
X112940000Y-88270000D02*
X112940000Y-88530000D01*
X111440000Y-88270000D02*
X112940000Y-88270000D01*
X115730000Y-88400000D02*
X115730000Y-88530000D01*
X113920000Y-88400000D02*
X115730000Y-88400000D01*
X118260000Y-88530000D02*
X118260000Y-80930000D01*
X115730000Y-88530000D02*
X118260000Y-88530000D01*
X113920000Y-88530000D02*
X113920000Y-88400000D01*
X112940000Y-88530000D02*
X113920000Y-88530000D01*
%TO.C,R18*%
X121227064Y-86235000D02*
X120772936Y-86235000D01*
X121227064Y-84765000D02*
X120772936Y-84765000D01*
%TO.C,R10*%
X121227064Y-79735000D02*
X120772936Y-79735000D01*
X121227064Y-78265000D02*
X120772936Y-78265000D01*
%TO.C,J13*%
X147670000Y-74210000D02*
X147670000Y-74330000D01*
X147670000Y-74330000D02*
X150330000Y-74330000D01*
X149000000Y-71670000D02*
X150330000Y-71670000D01*
X150330000Y-71670000D02*
X150330000Y-73000000D01*
X150330000Y-74210000D02*
X150330000Y-74330000D01*
%TO.C,J11*%
X151670000Y-104710000D02*
X151670000Y-104830000D01*
X151670000Y-104830000D02*
X154330000Y-104830000D01*
X153000000Y-102170000D02*
X154330000Y-102170000D01*
X154330000Y-102170000D02*
X154330000Y-103500000D01*
X154330000Y-104710000D02*
X154330000Y-104830000D01*
%TO.C,J10*%
X148170000Y-104710000D02*
X148170000Y-104830000D01*
X148170000Y-104830000D02*
X150830000Y-104830000D01*
X149500000Y-102170000D02*
X150830000Y-102170000D01*
X150830000Y-102170000D02*
X150830000Y-103500000D01*
X150830000Y-104710000D02*
X150830000Y-104830000D01*
%TO.C,J9*%
X144670000Y-104710000D02*
X144670000Y-104830000D01*
X144670000Y-104830000D02*
X147330000Y-104830000D01*
X146000000Y-102170000D02*
X147330000Y-102170000D01*
X147330000Y-102170000D02*
X147330000Y-103500000D01*
X147330000Y-104710000D02*
X147330000Y-104830000D01*
%TO.C,J8*%
X141170000Y-104710000D02*
X141170000Y-104830000D01*
X141170000Y-104830000D02*
X143830000Y-104830000D01*
X142500000Y-102170000D02*
X143830000Y-102170000D01*
X143830000Y-102170000D02*
X143830000Y-103500000D01*
X143830000Y-104710000D02*
X143830000Y-104830000D01*
%TO.C,R3*%
X167765000Y-94227064D02*
X167765000Y-93772936D01*
X169235000Y-94227064D02*
X169235000Y-93772936D01*
%TO.C,C3*%
X127265000Y-81298752D02*
X127265000Y-80776248D01*
X128735000Y-81298752D02*
X128735000Y-80776248D01*
%TO.C,J4*%
X174540000Y-101600000D02*
X174540000Y-99190000D01*
X174840000Y-93700000D02*
X174840000Y-101300000D01*
X174840000Y-101300000D02*
X177370000Y-101300000D01*
X176950000Y-101600000D02*
X174540000Y-101600000D01*
X177370000Y-93700000D02*
X174840000Y-93700000D01*
X177370000Y-93830000D02*
X177370000Y-93700000D01*
X177370000Y-101170000D02*
X179180000Y-101170000D01*
X177370000Y-101300000D02*
X177370000Y-101170000D01*
X179180000Y-93700000D02*
X179180000Y-93830000D01*
X179180000Y-93830000D02*
X177370000Y-93830000D01*
X179180000Y-101170000D02*
X179180000Y-101300000D01*
X179180000Y-101300000D02*
X180160000Y-101300000D01*
X180160000Y-93700000D02*
X179180000Y-93700000D01*
X180160000Y-93960000D02*
X180160000Y-93700000D01*
X180160000Y-101040000D02*
X181660000Y-101040000D01*
X180160000Y-101300000D02*
X180160000Y-101040000D01*
X181660000Y-93960000D02*
X180160000Y-93960000D01*
X181660000Y-101040000D02*
X181660000Y-93960000D01*
%TO.C,J3*%
X174540000Y-92330000D02*
X174540000Y-89920000D01*
X174840000Y-84430000D02*
X174840000Y-92030000D01*
X174840000Y-92030000D02*
X177370000Y-92030000D01*
X176950000Y-92330000D02*
X174540000Y-92330000D01*
X177370000Y-84430000D02*
X174840000Y-84430000D01*
X177370000Y-84560000D02*
X177370000Y-84430000D01*
X177370000Y-91900000D02*
X179180000Y-91900000D01*
X177370000Y-92030000D02*
X177370000Y-91900000D01*
X179180000Y-84430000D02*
X179180000Y-84560000D01*
X179180000Y-84560000D02*
X177370000Y-84560000D01*
X179180000Y-91900000D02*
X179180000Y-92030000D01*
X179180000Y-92030000D02*
X180160000Y-92030000D01*
X180160000Y-84430000D02*
X179180000Y-84430000D01*
X180160000Y-84690000D02*
X180160000Y-84430000D01*
X180160000Y-91770000D02*
X181660000Y-91770000D01*
X180160000Y-92030000D02*
X180160000Y-91770000D01*
X181660000Y-84690000D02*
X180160000Y-84690000D01*
X181660000Y-91770000D02*
X181660000Y-84690000D01*
%TO.C,R5*%
X153765000Y-94227064D02*
X153765000Y-93772936D01*
X155235000Y-94227064D02*
X155235000Y-93772936D01*
%TO.C,R17*%
X138265000Y-81272936D02*
X138265000Y-81727064D01*
X139735000Y-81272936D02*
X139735000Y-81727064D01*
%TO.C,C6*%
X159765000Y-85701248D02*
X159765000Y-86223752D01*
X161235000Y-85701248D02*
X161235000Y-86223752D01*
%TO.C,R16*%
X152265000Y-81272936D02*
X152265000Y-81727064D01*
X153735000Y-81272936D02*
X153735000Y-81727064D01*
%TO.C,J7*%
X157470000Y-106040000D02*
X159880000Y-106040000D01*
X157470000Y-108450000D02*
X157470000Y-106040000D01*
X157770000Y-106340000D02*
X157770000Y-108870000D01*
X157770000Y-108870000D02*
X157900000Y-108870000D01*
X157770000Y-110680000D02*
X157770000Y-111660000D01*
X157770000Y-111660000D02*
X161540000Y-111660000D01*
X157900000Y-108870000D02*
X157900000Y-110680000D01*
X157900000Y-110680000D02*
X157770000Y-110680000D01*
X161540000Y-111660000D02*
X161540000Y-113160000D01*
X161540000Y-113160000D02*
X169380000Y-113160000D01*
X169380000Y-111660000D02*
X173150000Y-111660000D01*
X169380000Y-113160000D02*
X169380000Y-111660000D01*
X173020000Y-108870000D02*
X173150000Y-108870000D01*
X173020000Y-110680000D02*
X173020000Y-108870000D01*
X173150000Y-106340000D02*
X157770000Y-106340000D01*
X173150000Y-108870000D02*
X173150000Y-106340000D01*
X173150000Y-110680000D02*
X173020000Y-110680000D01*
X173150000Y-111660000D02*
X173150000Y-110680000D01*
%TO.C,J1*%
X111440000Y-90730000D02*
X111440000Y-97810000D01*
X111440000Y-97810000D02*
X112940000Y-97810000D01*
X112940000Y-90470000D02*
X112940000Y-90730000D01*
X112940000Y-90730000D02*
X111440000Y-90730000D01*
X112940000Y-97810000D02*
X112940000Y-98070000D01*
X112940000Y-98070000D02*
X113920000Y-98070000D01*
X113920000Y-90470000D02*
X112940000Y-90470000D01*
X113920000Y-90600000D02*
X113920000Y-90470000D01*
X113920000Y-97940000D02*
X115730000Y-97940000D01*
X113920000Y-98070000D02*
X113920000Y-97940000D01*
X115730000Y-90470000D02*
X115730000Y-90600000D01*
X115730000Y-90600000D02*
X113920000Y-90600000D01*
X115730000Y-97940000D02*
X115730000Y-98070000D01*
X115730000Y-98070000D02*
X118260000Y-98070000D01*
X116150000Y-90170000D02*
X118560000Y-90170000D01*
X118260000Y-90470000D02*
X115730000Y-90470000D01*
X118260000Y-98070000D02*
X118260000Y-90470000D01*
X118560000Y-90170000D02*
X118560000Y-92580000D01*
%TO.C,J2*%
X129010000Y-106040000D02*
X131420000Y-106040000D01*
X129010000Y-108450000D02*
X129010000Y-106040000D01*
X129310000Y-106340000D02*
X129310000Y-108870000D01*
X129310000Y-108870000D02*
X129440000Y-108870000D01*
X129310000Y-110680000D02*
X129310000Y-111660000D01*
X129310000Y-111660000D02*
X129570000Y-111660000D01*
X129440000Y-108870000D02*
X129440000Y-110680000D01*
X129440000Y-110680000D02*
X129310000Y-110680000D01*
X129570000Y-111660000D02*
X129570000Y-113160000D01*
X129570000Y-113160000D02*
X136650000Y-113160000D01*
X136650000Y-111660000D02*
X136910000Y-111660000D01*
X136650000Y-113160000D02*
X136650000Y-111660000D01*
X136780000Y-108870000D02*
X136910000Y-108870000D01*
X136780000Y-110680000D02*
X136780000Y-108870000D01*
X136910000Y-106340000D02*
X129310000Y-106340000D01*
X136910000Y-108870000D02*
X136910000Y-106340000D01*
X136910000Y-110680000D02*
X136780000Y-110680000D01*
X136910000Y-111660000D02*
X136910000Y-110680000D01*
%TO.C,R2*%
X164265000Y-94227064D02*
X164265000Y-93772936D01*
X165735000Y-94227064D02*
X165735000Y-93772936D01*
%TO.C,J6*%
X138550000Y-106040000D02*
X140960000Y-106040000D01*
X138550000Y-108450000D02*
X138550000Y-106040000D01*
X138850000Y-106340000D02*
X138850000Y-108870000D01*
X138850000Y-108870000D02*
X138980000Y-108870000D01*
X138850000Y-110680000D02*
X138850000Y-111660000D01*
X138850000Y-111660000D02*
X139110000Y-111660000D01*
X138980000Y-108870000D02*
X138980000Y-110680000D01*
X138980000Y-110680000D02*
X138850000Y-110680000D01*
X139110000Y-111660000D02*
X139110000Y-113160000D01*
X139110000Y-113160000D02*
X146190000Y-113160000D01*
X146190000Y-111660000D02*
X146450000Y-111660000D01*
X146190000Y-113160000D02*
X146190000Y-111660000D01*
X146320000Y-108870000D02*
X146450000Y-108870000D01*
X146320000Y-110680000D02*
X146320000Y-108870000D01*
X146450000Y-106340000D02*
X138850000Y-106340000D01*
X146450000Y-108870000D02*
X146450000Y-106340000D01*
X146450000Y-110680000D02*
X146320000Y-110680000D01*
X146450000Y-111660000D02*
X146450000Y-110680000D01*
%TO.C,R13*%
X157765000Y-81272936D02*
X157765000Y-81727064D01*
X159235000Y-81272936D02*
X159235000Y-81727064D01*
%TO.C,J16*%
X124650000Y-64340000D02*
X124650000Y-65320000D01*
X124650000Y-65320000D02*
X124780000Y-65320000D01*
X124650000Y-67130000D02*
X124650000Y-69660000D01*
X124650000Y-69660000D02*
X140030000Y-69660000D01*
X124780000Y-65320000D02*
X124780000Y-67130000D01*
X124780000Y-67130000D02*
X124650000Y-67130000D01*
X128420000Y-62840000D02*
X128420000Y-64340000D01*
X128420000Y-64340000D02*
X124650000Y-64340000D01*
X136260000Y-62840000D02*
X128420000Y-62840000D01*
X136260000Y-64340000D02*
X136260000Y-62840000D01*
X139900000Y-65320000D02*
X140030000Y-65320000D01*
X139900000Y-67130000D02*
X139900000Y-65320000D01*
X140030000Y-64340000D02*
X136260000Y-64340000D01*
X140030000Y-65320000D02*
X140030000Y-64340000D01*
X140030000Y-67130000D02*
X139900000Y-67130000D01*
X140030000Y-69660000D02*
X140030000Y-67130000D01*
X140330000Y-67550000D02*
X140330000Y-69960000D01*
X140330000Y-69960000D02*
X137920000Y-69960000D01*
%TO.C,R11*%
X139227064Y-85265000D02*
X138772936Y-85265000D01*
X139227064Y-86735000D02*
X138772936Y-86735000D01*
%TO.C,R7*%
X160765000Y-94227064D02*
X160765000Y-93772936D01*
X162235000Y-94227064D02*
X162235000Y-93772936D01*
%TO.C,J20*%
X120670000Y-73390000D02*
X120670000Y-63170000D01*
X123330000Y-63170000D02*
X120670000Y-63170000D01*
X123330000Y-73390000D02*
X120670000Y-73390000D01*
X123330000Y-73390000D02*
X123330000Y-63170000D01*
X123330000Y-74660000D02*
X123330000Y-75990000D01*
X123330000Y-75990000D02*
X122000000Y-75990000D01*
%TO.C,D1*%
X121460000Y-98850000D02*
X113800000Y-98850000D01*
X121460000Y-103150000D02*
X121460000Y-98850000D01*
X121460000Y-103150000D02*
X113800000Y-103150000D01*
%TO.C,J5*%
X148050000Y-106040000D02*
X150460000Y-106040000D01*
X148050000Y-108450000D02*
X148050000Y-106040000D01*
X148350000Y-106340000D02*
X148350000Y-108870000D01*
X148350000Y-108870000D02*
X148480000Y-108870000D01*
X148350000Y-110680000D02*
X148350000Y-111660000D01*
X148350000Y-111660000D02*
X148610000Y-111660000D01*
X148480000Y-108870000D02*
X148480000Y-110680000D01*
X148480000Y-110680000D02*
X148350000Y-110680000D01*
X148610000Y-111660000D02*
X148610000Y-113160000D01*
X148610000Y-113160000D02*
X155690000Y-113160000D01*
X155690000Y-111660000D02*
X155950000Y-111660000D01*
X155690000Y-113160000D02*
X155690000Y-111660000D01*
X155820000Y-108870000D02*
X155950000Y-108870000D01*
X155820000Y-110680000D02*
X155820000Y-108870000D01*
X155950000Y-106340000D02*
X148350000Y-106340000D01*
X155950000Y-108870000D02*
X155950000Y-106340000D01*
X155950000Y-110680000D02*
X155820000Y-110680000D01*
X155950000Y-111660000D02*
X155950000Y-110680000D01*
%TO.C,R9*%
X143772936Y-85265000D02*
X144227064Y-85265000D01*
X143772936Y-86735000D02*
X144227064Y-86735000D01*
%TO.C,C4*%
X165765000Y-81201248D02*
X165765000Y-81723752D01*
X167235000Y-81201248D02*
X167235000Y-81723752D01*
%TO.C,J18*%
X158730000Y-64340000D02*
X158730000Y-65320000D01*
X158730000Y-65320000D02*
X158860000Y-65320000D01*
X158730000Y-67130000D02*
X158730000Y-69660000D01*
X158730000Y-69660000D02*
X174110000Y-69660000D01*
X158860000Y-65320000D02*
X158860000Y-67130000D01*
X158860000Y-67130000D02*
X158730000Y-67130000D01*
X162500000Y-62840000D02*
X162500000Y-64340000D01*
X162500000Y-64340000D02*
X158730000Y-64340000D01*
X170340000Y-62840000D02*
X162500000Y-62840000D01*
X170340000Y-64340000D02*
X170340000Y-62840000D01*
X173980000Y-65320000D02*
X174110000Y-65320000D01*
X173980000Y-67130000D02*
X173980000Y-65320000D01*
X174110000Y-64340000D02*
X170340000Y-64340000D01*
X174110000Y-65320000D02*
X174110000Y-64340000D01*
X174110000Y-67130000D02*
X173980000Y-67130000D01*
X174110000Y-69660000D02*
X174110000Y-67130000D01*
X174410000Y-67550000D02*
X174410000Y-69960000D01*
X174410000Y-69960000D02*
X172000000Y-69960000D01*
%TO.C,C2*%
X127265000Y-95701248D02*
X127265000Y-96223752D01*
X128735000Y-95701248D02*
X128735000Y-96223752D01*
%TO.C,C5*%
X161765000Y-81276248D02*
X161765000Y-81798752D01*
X163235000Y-81276248D02*
X163235000Y-81798752D01*
%TO.C,R14*%
X141765000Y-81272936D02*
X141765000Y-81727064D01*
X143235000Y-81272936D02*
X143235000Y-81727064D01*
%TO.C,R1*%
X141265000Y-96227064D02*
X141265000Y-95772936D01*
X142735000Y-96227064D02*
X142735000Y-95772936D01*
%TO.C,R15*%
X134765000Y-81272936D02*
X134765000Y-81727064D01*
X136235000Y-81272936D02*
X136235000Y-81727064D01*
%TO.C,J17*%
X174540000Y-82870000D02*
X174540000Y-80460000D01*
X174840000Y-74970000D02*
X174840000Y-82570000D01*
X174840000Y-82570000D02*
X177370000Y-82570000D01*
X176950000Y-82870000D02*
X174540000Y-82870000D01*
X177370000Y-74970000D02*
X174840000Y-74970000D01*
X177370000Y-75100000D02*
X177370000Y-74970000D01*
X177370000Y-82440000D02*
X179180000Y-82440000D01*
X177370000Y-82570000D02*
X177370000Y-82440000D01*
X179180000Y-74970000D02*
X179180000Y-75100000D01*
X179180000Y-75100000D02*
X177370000Y-75100000D01*
X179180000Y-82440000D02*
X179180000Y-82570000D01*
X179180000Y-82570000D02*
X180160000Y-82570000D01*
X180160000Y-74970000D02*
X179180000Y-74970000D01*
X180160000Y-75230000D02*
X180160000Y-74970000D01*
X180160000Y-82310000D02*
X181660000Y-82310000D01*
X180160000Y-82570000D02*
X180160000Y-82310000D01*
X181660000Y-75230000D02*
X180160000Y-75230000D01*
X181660000Y-82310000D02*
X181660000Y-75230000D01*
%TO.C,R6*%
X157265000Y-94227064D02*
X157265000Y-93772936D01*
X158735000Y-94227064D02*
X158735000Y-93772936D01*
%TO.C,C1*%
X122960000Y-108471000D02*
X119983000Y-108471000D01*
X122960000Y-108511000D02*
X119990000Y-108511000D01*
X122960000Y-108551000D02*
X119998000Y-108551000D01*
X122960000Y-108591000D02*
X120006000Y-108591000D01*
X122960000Y-108631000D02*
X120015000Y-108631000D01*
X122960000Y-108671000D02*
X120024000Y-108671000D01*
X122960000Y-108711000D02*
X120033000Y-108711000D01*
X122960000Y-108751000D02*
X120043000Y-108751000D01*
X122960000Y-108791000D02*
X120053000Y-108791000D01*
X122960000Y-108831000D02*
X120064000Y-108831000D01*
X122960000Y-108871000D02*
X120075000Y-108871000D01*
X122960000Y-108911000D02*
X120086000Y-108911000D01*
X122960000Y-108951000D02*
X120098000Y-108951000D01*
X122960000Y-108991000D02*
X120111000Y-108991000D01*
X122960000Y-109031000D02*
X120123000Y-109031000D01*
X122960000Y-109071000D02*
X120137000Y-109071000D01*
X122960000Y-109111000D02*
X120150000Y-109111000D01*
X122960000Y-109151000D02*
X120165000Y-109151000D01*
X122960000Y-109191000D02*
X120179000Y-109191000D01*
X122960000Y-109231000D02*
X120195000Y-109231000D01*
X122960000Y-109271000D02*
X120210000Y-109271000D01*
X122960000Y-109311000D02*
X120226000Y-109311000D01*
X122960000Y-109351000D02*
X120243000Y-109351000D01*
X122960000Y-109391000D02*
X120260000Y-109391000D01*
X122960000Y-109431000D02*
X120278000Y-109431000D01*
X122960000Y-109471000D02*
X120296000Y-109471000D01*
X122960000Y-109511000D02*
X120314000Y-109511000D01*
X122960000Y-109551000D02*
X120334000Y-109551000D01*
X122960000Y-109591000D02*
X120353000Y-109591000D01*
X122960000Y-109631000D02*
X120373000Y-109631000D01*
X122960000Y-109671000D02*
X120394000Y-109671000D01*
X122960000Y-109711000D02*
X120416000Y-109711000D01*
X122960000Y-109751000D02*
X120438000Y-109751000D01*
X122960000Y-109791000D02*
X120460000Y-109791000D01*
X122960000Y-109831000D02*
X120483000Y-109831000D01*
X122960000Y-109871000D02*
X120507000Y-109871000D01*
X122960000Y-109911000D02*
X120531000Y-109911000D01*
X122960000Y-109951000D02*
X120556000Y-109951000D01*
X122960000Y-109991000D02*
X120582000Y-109991000D01*
X122960000Y-110031000D02*
X120608000Y-110031000D01*
X122960000Y-110071000D02*
X120635000Y-110071000D01*
X122960000Y-110111000D02*
X120662000Y-110111000D01*
X122960000Y-110151000D02*
X120691000Y-110151000D01*
X122960000Y-110191000D02*
X120720000Y-110191000D01*
X122960000Y-110231000D02*
X120750000Y-110231000D01*
X122960000Y-110271000D02*
X120780000Y-110271000D01*
X122960000Y-110311000D02*
X120811000Y-110311000D01*
X122960000Y-110351000D02*
X120844000Y-110351000D01*
X122960000Y-110391000D02*
X120876000Y-110391000D01*
X122960000Y-110431000D02*
X120910000Y-110431000D01*
X122960000Y-110471000D02*
X120945000Y-110471000D01*
X122960000Y-110511000D02*
X120981000Y-110511000D01*
X124533000Y-111831000D02*
X123467000Y-111831000D01*
X124768000Y-111791000D02*
X123232000Y-111791000D01*
X124948000Y-111751000D02*
X123052000Y-111751000D01*
X125098000Y-111711000D02*
X122902000Y-111711000D01*
X125229000Y-111671000D02*
X122771000Y-111671000D01*
X125346000Y-111631000D02*
X122654000Y-111631000D01*
X125453000Y-111591000D02*
X122547000Y-111591000D01*
X125552000Y-111551000D02*
X122448000Y-111551000D01*
X125645000Y-111511000D02*
X122355000Y-111511000D01*
X125731000Y-111471000D02*
X122269000Y-111471000D01*
X125813000Y-111431000D02*
X122187000Y-111431000D01*
X125890000Y-111391000D02*
X122110000Y-111391000D01*
X125964000Y-111351000D02*
X122036000Y-111351000D01*
X126034000Y-111311000D02*
X121966000Y-111311000D01*
X126102000Y-111271000D02*
X121898000Y-111271000D01*
X126166000Y-111231000D02*
X121834000Y-111231000D01*
X126228000Y-111191000D02*
X121772000Y-111191000D01*
X126287000Y-111151000D02*
X121713000Y-111151000D01*
X126315000Y-103340302D02*
X126315000Y-104140302D01*
X126345000Y-111111000D02*
X121655000Y-111111000D01*
X126400000Y-111071000D02*
X121600000Y-111071000D01*
X126454000Y-111031000D02*
X121546000Y-111031000D01*
X126505000Y-110991000D02*
X121495000Y-110991000D01*
X126556000Y-110951000D02*
X121444000Y-110951000D01*
X126604000Y-110911000D02*
X121396000Y-110911000D01*
X126651000Y-110871000D02*
X121349000Y-110871000D01*
X126697000Y-110831000D02*
X121303000Y-110831000D01*
X126715000Y-103740302D02*
X125915000Y-103740302D01*
X126741000Y-110791000D02*
X121259000Y-110791000D01*
X126784000Y-110751000D02*
X121216000Y-110751000D01*
X126826000Y-110711000D02*
X121174000Y-110711000D01*
X126867000Y-110671000D02*
X121133000Y-110671000D01*
X126907000Y-110631000D02*
X121093000Y-110631000D01*
X126945000Y-110591000D02*
X121055000Y-110591000D01*
X126983000Y-110551000D02*
X121017000Y-110551000D01*
X127019000Y-110511000D02*
X125040000Y-110511000D01*
X127055000Y-110471000D02*
X125040000Y-110471000D01*
X127090000Y-110431000D02*
X125040000Y-110431000D01*
X127124000Y-110391000D02*
X125040000Y-110391000D01*
X127156000Y-110351000D02*
X125040000Y-110351000D01*
X127189000Y-110311000D02*
X125040000Y-110311000D01*
X127220000Y-110271000D02*
X125040000Y-110271000D01*
X127250000Y-110231000D02*
X125040000Y-110231000D01*
X127280000Y-110191000D02*
X125040000Y-110191000D01*
X127309000Y-110151000D02*
X125040000Y-110151000D01*
X127338000Y-110111000D02*
X125040000Y-110111000D01*
X127365000Y-110071000D02*
X125040000Y-110071000D01*
X127392000Y-110031000D02*
X125040000Y-110031000D01*
X127418000Y-109991000D02*
X125040000Y-109991000D01*
X127444000Y-109951000D02*
X125040000Y-109951000D01*
X127469000Y-109911000D02*
X125040000Y-109911000D01*
X127493000Y-109871000D02*
X125040000Y-109871000D01*
X127517000Y-109831000D02*
X125040000Y-109831000D01*
X127540000Y-109791000D02*
X125040000Y-109791000D01*
X127562000Y-109751000D02*
X125040000Y-109751000D01*
X127584000Y-109711000D02*
X125040000Y-109711000D01*
X127606000Y-109671000D02*
X125040000Y-109671000D01*
X127627000Y-109631000D02*
X125040000Y-109631000D01*
X127647000Y-109591000D02*
X125040000Y-109591000D01*
X127666000Y-109551000D02*
X125040000Y-109551000D01*
X127686000Y-109511000D02*
X125040000Y-109511000D01*
X127704000Y-109471000D02*
X125040000Y-109471000D01*
X127722000Y-109431000D02*
X125040000Y-109431000D01*
X127740000Y-109391000D02*
X125040000Y-109391000D01*
X127757000Y-109351000D02*
X125040000Y-109351000D01*
X127774000Y-109311000D02*
X125040000Y-109311000D01*
X127790000Y-109271000D02*
X125040000Y-109271000D01*
X127805000Y-109231000D02*
X125040000Y-109231000D01*
X127821000Y-109191000D02*
X125040000Y-109191000D01*
X127835000Y-109151000D02*
X125040000Y-109151000D01*
X127850000Y-109111000D02*
X125040000Y-109111000D01*
X127863000Y-109071000D02*
X125040000Y-109071000D01*
X127877000Y-109031000D02*
X125040000Y-109031000D01*
X127889000Y-108991000D02*
X125040000Y-108991000D01*
X127902000Y-108951000D02*
X125040000Y-108951000D01*
X127914000Y-108911000D02*
X125040000Y-108911000D01*
X127925000Y-108871000D02*
X125040000Y-108871000D01*
X127936000Y-108831000D02*
X125040000Y-108831000D01*
X127947000Y-108791000D02*
X125040000Y-108791000D01*
X127957000Y-108751000D02*
X125040000Y-108751000D01*
X127967000Y-108711000D02*
X125040000Y-108711000D01*
X127976000Y-108671000D02*
X125040000Y-108671000D01*
X127985000Y-108631000D02*
X125040000Y-108631000D01*
X127994000Y-108591000D02*
X125040000Y-108591000D01*
X128002000Y-108551000D02*
X125040000Y-108551000D01*
X128010000Y-108511000D02*
X125040000Y-108511000D01*
X128017000Y-108471000D02*
X125040000Y-108471000D01*
X128024000Y-108430000D02*
X119976000Y-108430000D01*
X128030000Y-108390000D02*
X119970000Y-108390000D01*
X128037000Y-108350000D02*
X119963000Y-108350000D01*
X128042000Y-108310000D02*
X119958000Y-108310000D01*
X128048000Y-108270000D02*
X119952000Y-108270000D01*
X128052000Y-108230000D02*
X119948000Y-108230000D01*
X128057000Y-108190000D02*
X119943000Y-108190000D01*
X128061000Y-108150000D02*
X119939000Y-108150000D01*
X128065000Y-108110000D02*
X119935000Y-108110000D01*
X128068000Y-108070000D02*
X119932000Y-108070000D01*
X128071000Y-108030000D02*
X119929000Y-108030000D01*
X128074000Y-107990000D02*
X119926000Y-107990000D01*
X128076000Y-107950000D02*
X119924000Y-107950000D01*
X128077000Y-107910000D02*
X119923000Y-107910000D01*
X128079000Y-107870000D02*
X119921000Y-107870000D01*
X128080000Y-107750000D02*
X119920000Y-107750000D01*
X128080000Y-107790000D02*
X119920000Y-107790000D01*
X128080000Y-107830000D02*
X119920000Y-107830000D01*
X128120000Y-107750000D02*
G75*
G02*
X119880000Y-107750000I-4120000J0D01*
G01*
X119880000Y-107750000D02*
G75*
G02*
X128120000Y-107750000I4120000J0D01*
G01*
%TO.C,R4*%
X150265000Y-94227064D02*
X150265000Y-93772936D01*
X151735000Y-94227064D02*
X151735000Y-93772936D01*
%TO.C,R12*%
X145265000Y-81272936D02*
X145265000Y-81727064D01*
X146735000Y-81272936D02*
X146735000Y-81727064D01*
%TO.C,R8*%
X148765000Y-81272936D02*
X148765000Y-81727064D01*
X150235000Y-81272936D02*
X150235000Y-81727064D01*
%TO.C,J14*%
X118600000Y-71170000D02*
X118600000Y-73580000D01*
X116190000Y-71170000D02*
X118600000Y-71170000D01*
X118300000Y-71470000D02*
X115770000Y-71470000D01*
X115770000Y-71470000D02*
X115770000Y-71600000D01*
X113960000Y-71470000D02*
X112980000Y-71470000D01*
X112980000Y-71470000D02*
X112980000Y-71730000D01*
X115770000Y-71600000D02*
X113960000Y-71600000D01*
X113960000Y-71600000D02*
X113960000Y-71470000D01*
X112980000Y-71730000D02*
X111480000Y-71730000D01*
X111480000Y-71730000D02*
X111480000Y-78810000D01*
X112980000Y-78810000D02*
X112980000Y-79070000D01*
X111480000Y-78810000D02*
X112980000Y-78810000D01*
X115770000Y-78940000D02*
X115770000Y-79070000D01*
X113960000Y-78940000D02*
X115770000Y-78940000D01*
X118300000Y-79070000D02*
X118300000Y-71470000D01*
X115770000Y-79070000D02*
X118300000Y-79070000D01*
X113960000Y-79070000D02*
X113960000Y-78940000D01*
X112980000Y-79070000D02*
X113960000Y-79070000D01*
%TO.C,U1*%
X124670000Y-75450000D02*
X124670000Y-84160000D01*
X124670000Y-84160000D02*
X125030000Y-84160000D01*
X124670000Y-92869999D02*
X124670000Y-101579999D01*
X124670000Y-101579999D02*
X170150000Y-101580000D01*
X125030000Y-84160000D02*
X125030000Y-92869999D01*
X125030000Y-92869999D02*
X124670000Y-92869999D01*
X170150000Y-75450001D02*
X124670000Y-75450000D01*
X170150000Y-101580000D02*
X170150000Y-75450001D01*
%TD*%
M02*
